%TF.GenerationSoftware,KiCad,Pcbnew,9.0.0*%
%TF.CreationDate,2025-04-03T19:27:17-04:00*%
%TF.ProjectId,diamond,6469616d-6f6e-4642-9e6b-696361645f70,rev?*%
%TF.SameCoordinates,Original*%
%TF.FileFunction,Soldermask,Top*%
%TF.FilePolarity,Negative*%
%FSLAX46Y46*%
G04 Gerber Fmt 4.6, Leading zero omitted, Abs format (unit mm)*
G04 Created by KiCad (PCBNEW 9.0.0) date 2025-04-03 19:27:17*
%MOMM*%
%LPD*%
G01*
G04 APERTURE LIST*
G04 Aperture macros list*
%AMRoundRect*
0 Rectangle with rounded corners*
0 $1 Rounding radius*
0 $2 $3 $4 $5 $6 $7 $8 $9 X,Y pos of 4 corners*
0 Add a 4 corners polygon primitive as box body*
4,1,4,$2,$3,$4,$5,$6,$7,$8,$9,$2,$3,0*
0 Add four circle primitives for the rounded corners*
1,1,$1+$1,$2,$3*
1,1,$1+$1,$4,$5*
1,1,$1+$1,$6,$7*
1,1,$1+$1,$8,$9*
0 Add four rect primitives between the rounded corners*
20,1,$1+$1,$2,$3,$4,$5,0*
20,1,$1+$1,$4,$5,$6,$7,0*
20,1,$1+$1,$6,$7,$8,$9,0*
20,1,$1+$1,$8,$9,$2,$3,0*%
G04 Aperture macros list end*
%ADD10C,2.200000*%
%ADD11O,1.600000X1.600000*%
%ADD12R,1.600000X1.600000*%
%ADD13C,1.600000*%
%ADD14C,3.000000*%
%ADD15C,1.400000*%
%ADD16O,1.400000X1.400000*%
%ADD17R,1.200000X1.200000*%
%ADD18C,1.200000*%
%ADD19RoundRect,0.250001X-0.949999X0.949999X-0.949999X-0.949999X0.949999X-0.949999X0.949999X0.949999X0*%
%ADD20C,2.400000*%
%ADD21R,4.500000X2.500000*%
%ADD22O,4.500000X2.500000*%
%ADD23RoundRect,0.250000X-0.550000X-0.550000X0.550000X-0.550000X0.550000X0.550000X-0.550000X0.550000X0*%
%ADD24O,2.400000X2.400000*%
%ADD25R,1.800000X1.710000*%
%ADD26O,1.800000X1.710000*%
%ADD27R,2.200000X2.200000*%
%ADD28O,2.200000X2.200000*%
%ADD29C,1.512000*%
G04 APERTURE END LIST*
D10*
%TO.C,REF\u002A\u002A*%
X102362000Y-51308000D03*
%TD*%
D11*
%TO.C,D1*%
X112268000Y-97790000D03*
D12*
X112268000Y-105410000D03*
%TD*%
D13*
%TO.C,C1*%
X107753349Y-101346000D03*
D12*
X102753349Y-101346000D03*
%TD*%
D14*
%TO.C,J4*%
X164846000Y-89562000D03*
X159766000Y-89562000D03*
%TD*%
D15*
%TO.C,R12*%
X126492000Y-66548000D03*
D16*
X118872000Y-66548000D03*
%TD*%
D17*
%TO.C,C5*%
X119666000Y-56134000D03*
D18*
X121666000Y-56134000D03*
%TD*%
D15*
%TO.C,R6*%
X158496000Y-101854000D03*
D16*
X166116000Y-101854000D03*
%TD*%
D14*
%TO.C,J3*%
X164846000Y-70258000D03*
X159766000Y-70258000D03*
%TD*%
D19*
%TO.C,J1*%
X107696000Y-56924000D03*
D20*
X107696000Y-60424000D03*
%TD*%
D13*
%TO.C,C2*%
X148804000Y-67818000D03*
X143804000Y-67818000D03*
%TD*%
D15*
%TO.C,R7*%
X166624000Y-61214000D03*
D16*
X159004000Y-61214000D03*
%TD*%
D21*
%TO.C,Q3*%
X170654000Y-67078000D03*
D22*
X170654000Y-72528000D03*
X170654000Y-77978000D03*
%TD*%
D15*
%TO.C,R3*%
X102108000Y-94234000D03*
D16*
X102108000Y-86614000D03*
%TD*%
D13*
%TO.C,C3*%
X103632000Y-82002000D03*
X103632000Y-77002000D03*
%TD*%
%TO.C,C8*%
X109768000Y-91440000D03*
X114768000Y-91440000D03*
%TD*%
D23*
%TO.C,U1*%
X108209000Y-78486000D03*
D13*
X108209000Y-81026000D03*
X108209000Y-83566000D03*
X108209000Y-86106000D03*
X115829000Y-86106000D03*
X115829000Y-83566000D03*
X115829000Y-81026000D03*
X115829000Y-78486000D03*
%TD*%
D14*
%TO.C,J2*%
X139954000Y-85090000D03*
X139954000Y-80010000D03*
%TD*%
D20*
%TO.C,R1*%
X165608000Y-106680000D03*
D24*
X145288000Y-106680000D03*
%TD*%
D12*
%TO.C,C11*%
X136398000Y-55509349D03*
D13*
X136398000Y-60509349D03*
%TD*%
D25*
%TO.C,Q2*%
X171654000Y-56018000D03*
D26*
X171654000Y-58298000D03*
X171654000Y-60578000D03*
%TD*%
D20*
%TO.C,R8*%
X165862000Y-77978000D03*
D24*
X145542000Y-77978000D03*
%TD*%
D15*
%TO.C,R10*%
X103124000Y-64262000D03*
D16*
X103124000Y-71882000D03*
%TD*%
D20*
%TO.C,R2*%
X146558000Y-56642000D03*
D24*
X166878000Y-56642000D03*
%TD*%
D10*
%TO.C,REF\u002A\u002A*%
X172500000Y-51300000D03*
%TD*%
D14*
%TO.C,J5*%
X125068000Y-80010000D03*
X125068000Y-74930000D03*
%TD*%
D20*
%TO.C,R9*%
X145542000Y-96520000D03*
D24*
X165862000Y-96520000D03*
%TD*%
D13*
%TO.C,C6*%
X128056000Y-97536000D03*
X133056000Y-97536000D03*
%TD*%
D14*
%TO.C,J6*%
X124968000Y-91186000D03*
X124968000Y-86106000D03*
%TD*%
D27*
%TO.C,D2*%
X154940000Y-82296000D03*
D28*
X154940000Y-92456000D03*
%TD*%
D12*
%TO.C,C12*%
X136652000Y-101680000D03*
D13*
X136652000Y-106680000D03*
%TD*%
D10*
%TO.C,REF\u002A\u002A*%
X172500000Y-112000000D03*
%TD*%
D15*
%TO.C,R4*%
X108458000Y-66548000D03*
D16*
X116078000Y-66548000D03*
%TD*%
D21*
%TO.C,Q4*%
X170654000Y-85482000D03*
D22*
X170654000Y-90932000D03*
X170654000Y-96382000D03*
%TD*%
D10*
%TO.C,REF\u002A\u002A*%
X102300000Y-112000000D03*
%TD*%
D13*
%TO.C,C7*%
X109768000Y-72898000D03*
X114768000Y-72898000D03*
%TD*%
D15*
%TO.C,R5*%
X159004000Y-65532000D03*
D16*
X166624000Y-65532000D03*
%TD*%
D20*
%TO.C,R11*%
X130556000Y-71882000D03*
D24*
X130556000Y-92202000D03*
%TD*%
D13*
%TO.C,C4*%
X122642000Y-60960000D03*
X117642000Y-60960000D03*
%TD*%
D25*
%TO.C,Q1*%
X171654000Y-102766000D03*
D26*
X171654000Y-105046000D03*
X171654000Y-107326000D03*
%TD*%
D29*
%TO.C,RV1*%
X148590000Y-84836000D03*
X148590000Y-87376000D03*
X148590000Y-89916000D03*
%TD*%
M02*
