%TF.GenerationSoftware,KiCad,Pcbnew,9.0.0*%
%TF.CreationDate,2025-04-03T19:31:54-04:00*%
%TF.ProjectId,diamond,6469616d-6f6e-4642-9e6b-696361645f70,rev?*%
%TF.SameCoordinates,Original*%
%TF.FileFunction,Legend,Top*%
%TF.FilePolarity,Positive*%
%FSLAX46Y46*%
G04 Gerber Fmt 4.6, Leading zero omitted, Abs format (unit mm)*
G04 Created by KiCad (PCBNEW 9.0.0) date 2025-04-03 19:31:54*
%MOMM*%
%LPD*%
G01*
G04 APERTURE LIST*
%ADD10C,0.100000*%
%ADD11C,0.150000*%
%ADD12C,0.120000*%
%ADD13C,0.127000*%
G04 APERTURE END LIST*
D10*
X121448038Y-76642306D02*
X121400419Y-76737544D01*
X121400419Y-76737544D02*
X121400419Y-76880401D01*
X121400419Y-76880401D02*
X121448038Y-77023258D01*
X121448038Y-77023258D02*
X121543276Y-77118496D01*
X121543276Y-77118496D02*
X121638514Y-77166115D01*
X121638514Y-77166115D02*
X121828990Y-77213734D01*
X121828990Y-77213734D02*
X121971847Y-77213734D01*
X121971847Y-77213734D02*
X122162323Y-77166115D01*
X122162323Y-77166115D02*
X122257561Y-77118496D01*
X122257561Y-77118496D02*
X122352800Y-77023258D01*
X122352800Y-77023258D02*
X122400419Y-76880401D01*
X122400419Y-76880401D02*
X122400419Y-76785163D01*
X122400419Y-76785163D02*
X122352800Y-76642306D01*
X122352800Y-76642306D02*
X122305180Y-76594687D01*
X122305180Y-76594687D02*
X121971847Y-76594687D01*
X121971847Y-76594687D02*
X121971847Y-76785163D01*
X122400419Y-76166115D02*
X121400419Y-76166115D01*
X121400419Y-76166115D02*
X122400419Y-75594687D01*
X122400419Y-75594687D02*
X121400419Y-75594687D01*
X122400419Y-75118496D02*
X121400419Y-75118496D01*
X121400419Y-75118496D02*
X121400419Y-74880401D01*
X121400419Y-74880401D02*
X121448038Y-74737544D01*
X121448038Y-74737544D02*
X121543276Y-74642306D01*
X121543276Y-74642306D02*
X121638514Y-74594687D01*
X121638514Y-74594687D02*
X121828990Y-74547068D01*
X121828990Y-74547068D02*
X121971847Y-74547068D01*
X121971847Y-74547068D02*
X122162323Y-74594687D01*
X122162323Y-74594687D02*
X122257561Y-74642306D01*
X122257561Y-74642306D02*
X122352800Y-74737544D01*
X122352800Y-74737544D02*
X122400419Y-74880401D01*
X122400419Y-74880401D02*
X122400419Y-75118496D01*
X162689217Y-86370609D02*
X162832074Y-86418228D01*
X162832074Y-86418228D02*
X162879693Y-86465847D01*
X162879693Y-86465847D02*
X162927312Y-86561085D01*
X162927312Y-86561085D02*
X162927312Y-86703942D01*
X162927312Y-86703942D02*
X162879693Y-86799180D01*
X162879693Y-86799180D02*
X162832074Y-86846800D01*
X162832074Y-86846800D02*
X162736836Y-86894419D01*
X162736836Y-86894419D02*
X162355884Y-86894419D01*
X162355884Y-86894419D02*
X162355884Y-85894419D01*
X162355884Y-85894419D02*
X162689217Y-85894419D01*
X162689217Y-85894419D02*
X162784455Y-85942038D01*
X162784455Y-85942038D02*
X162832074Y-85989657D01*
X162832074Y-85989657D02*
X162879693Y-86084895D01*
X162879693Y-86084895D02*
X162879693Y-86180133D01*
X162879693Y-86180133D02*
X162832074Y-86275371D01*
X162832074Y-86275371D02*
X162784455Y-86322990D01*
X162784455Y-86322990D02*
X162689217Y-86370609D01*
X162689217Y-86370609D02*
X162355884Y-86370609D01*
X163355884Y-86513466D02*
X164117789Y-86513466D01*
X121461884Y-113156419D02*
X121461884Y-112156419D01*
X121890455Y-113156419D02*
X121890455Y-112632609D01*
X121890455Y-112632609D02*
X121842836Y-112537371D01*
X121842836Y-112537371D02*
X121747598Y-112489752D01*
X121747598Y-112489752D02*
X121604741Y-112489752D01*
X121604741Y-112489752D02*
X121509503Y-112537371D01*
X121509503Y-112537371D02*
X121461884Y-112584990D01*
X122223789Y-112489752D02*
X122604741Y-112489752D01*
X122366646Y-112156419D02*
X122366646Y-113013561D01*
X122366646Y-113013561D02*
X122414265Y-113108800D01*
X122414265Y-113108800D02*
X122509503Y-113156419D01*
X122509503Y-113156419D02*
X122604741Y-113156419D01*
X122795218Y-112489752D02*
X123176170Y-112489752D01*
X122938075Y-112156419D02*
X122938075Y-113013561D01*
X122938075Y-113013561D02*
X122985694Y-113108800D01*
X122985694Y-113108800D02*
X123080932Y-113156419D01*
X123080932Y-113156419D02*
X123176170Y-113156419D01*
X123509504Y-112489752D02*
X123509504Y-113489752D01*
X123509504Y-112537371D02*
X123604742Y-112489752D01*
X123604742Y-112489752D02*
X123795218Y-112489752D01*
X123795218Y-112489752D02*
X123890456Y-112537371D01*
X123890456Y-112537371D02*
X123938075Y-112584990D01*
X123938075Y-112584990D02*
X123985694Y-112680228D01*
X123985694Y-112680228D02*
X123985694Y-112965942D01*
X123985694Y-112965942D02*
X123938075Y-113061180D01*
X123938075Y-113061180D02*
X123890456Y-113108800D01*
X123890456Y-113108800D02*
X123795218Y-113156419D01*
X123795218Y-113156419D02*
X123604742Y-113156419D01*
X123604742Y-113156419D02*
X123509504Y-113108800D01*
X124366647Y-113108800D02*
X124461885Y-113156419D01*
X124461885Y-113156419D02*
X124652361Y-113156419D01*
X124652361Y-113156419D02*
X124747599Y-113108800D01*
X124747599Y-113108800D02*
X124795218Y-113013561D01*
X124795218Y-113013561D02*
X124795218Y-112965942D01*
X124795218Y-112965942D02*
X124747599Y-112870704D01*
X124747599Y-112870704D02*
X124652361Y-112823085D01*
X124652361Y-112823085D02*
X124509504Y-112823085D01*
X124509504Y-112823085D02*
X124414266Y-112775466D01*
X124414266Y-112775466D02*
X124366647Y-112680228D01*
X124366647Y-112680228D02*
X124366647Y-112632609D01*
X124366647Y-112632609D02*
X124414266Y-112537371D01*
X124414266Y-112537371D02*
X124509504Y-112489752D01*
X124509504Y-112489752D02*
X124652361Y-112489752D01*
X124652361Y-112489752D02*
X124747599Y-112537371D01*
X125223790Y-113061180D02*
X125271409Y-113108800D01*
X125271409Y-113108800D02*
X125223790Y-113156419D01*
X125223790Y-113156419D02*
X125176171Y-113108800D01*
X125176171Y-113108800D02*
X125223790Y-113061180D01*
X125223790Y-113061180D02*
X125223790Y-113156419D01*
X125223790Y-112537371D02*
X125271409Y-112584990D01*
X125271409Y-112584990D02*
X125223790Y-112632609D01*
X125223790Y-112632609D02*
X125176171Y-112584990D01*
X125176171Y-112584990D02*
X125223790Y-112537371D01*
X125223790Y-112537371D02*
X125223790Y-112632609D01*
X126414265Y-112108800D02*
X125557123Y-113394514D01*
X127461884Y-112108800D02*
X126604742Y-113394514D01*
X128223789Y-112489752D02*
X128223789Y-113299276D01*
X128223789Y-113299276D02*
X128176170Y-113394514D01*
X128176170Y-113394514D02*
X128128551Y-113442133D01*
X128128551Y-113442133D02*
X128033313Y-113489752D01*
X128033313Y-113489752D02*
X127890456Y-113489752D01*
X127890456Y-113489752D02*
X127795218Y-113442133D01*
X128223789Y-113108800D02*
X128128551Y-113156419D01*
X128128551Y-113156419D02*
X127938075Y-113156419D01*
X127938075Y-113156419D02*
X127842837Y-113108800D01*
X127842837Y-113108800D02*
X127795218Y-113061180D01*
X127795218Y-113061180D02*
X127747599Y-112965942D01*
X127747599Y-112965942D02*
X127747599Y-112680228D01*
X127747599Y-112680228D02*
X127795218Y-112584990D01*
X127795218Y-112584990D02*
X127842837Y-112537371D01*
X127842837Y-112537371D02*
X127938075Y-112489752D01*
X127938075Y-112489752D02*
X128128551Y-112489752D01*
X128128551Y-112489752D02*
X128223789Y-112537371D01*
X128699980Y-113156419D02*
X128699980Y-112489752D01*
X128699980Y-112156419D02*
X128652361Y-112204038D01*
X128652361Y-112204038D02*
X128699980Y-112251657D01*
X128699980Y-112251657D02*
X128747599Y-112204038D01*
X128747599Y-112204038D02*
X128699980Y-112156419D01*
X128699980Y-112156419D02*
X128699980Y-112251657D01*
X129033313Y-112489752D02*
X129414265Y-112489752D01*
X129176170Y-112156419D02*
X129176170Y-113013561D01*
X129176170Y-113013561D02*
X129223789Y-113108800D01*
X129223789Y-113108800D02*
X129319027Y-113156419D01*
X129319027Y-113156419D02*
X129414265Y-113156419D01*
X129747599Y-113156419D02*
X129747599Y-112156419D01*
X130176170Y-113156419D02*
X130176170Y-112632609D01*
X130176170Y-112632609D02*
X130128551Y-112537371D01*
X130128551Y-112537371D02*
X130033313Y-112489752D01*
X130033313Y-112489752D02*
X129890456Y-112489752D01*
X129890456Y-112489752D02*
X129795218Y-112537371D01*
X129795218Y-112537371D02*
X129747599Y-112584990D01*
X131080932Y-112489752D02*
X131080932Y-113156419D01*
X130652361Y-112489752D02*
X130652361Y-113013561D01*
X130652361Y-113013561D02*
X130699980Y-113108800D01*
X130699980Y-113108800D02*
X130795218Y-113156419D01*
X130795218Y-113156419D02*
X130938075Y-113156419D01*
X130938075Y-113156419D02*
X131033313Y-113108800D01*
X131033313Y-113108800D02*
X131080932Y-113061180D01*
X131557123Y-113156419D02*
X131557123Y-112156419D01*
X131557123Y-112537371D02*
X131652361Y-112489752D01*
X131652361Y-112489752D02*
X131842837Y-112489752D01*
X131842837Y-112489752D02*
X131938075Y-112537371D01*
X131938075Y-112537371D02*
X131985694Y-112584990D01*
X131985694Y-112584990D02*
X132033313Y-112680228D01*
X132033313Y-112680228D02*
X132033313Y-112965942D01*
X132033313Y-112965942D02*
X131985694Y-113061180D01*
X131985694Y-113061180D02*
X131938075Y-113108800D01*
X131938075Y-113108800D02*
X131842837Y-113156419D01*
X131842837Y-113156419D02*
X131652361Y-113156419D01*
X131652361Y-113156419D02*
X131557123Y-113108800D01*
X132461885Y-113061180D02*
X132509504Y-113108800D01*
X132509504Y-113108800D02*
X132461885Y-113156419D01*
X132461885Y-113156419D02*
X132414266Y-113108800D01*
X132414266Y-113108800D02*
X132461885Y-113061180D01*
X132461885Y-113061180D02*
X132461885Y-113156419D01*
X133366646Y-113108800D02*
X133271408Y-113156419D01*
X133271408Y-113156419D02*
X133080932Y-113156419D01*
X133080932Y-113156419D02*
X132985694Y-113108800D01*
X132985694Y-113108800D02*
X132938075Y-113061180D01*
X132938075Y-113061180D02*
X132890456Y-112965942D01*
X132890456Y-112965942D02*
X132890456Y-112680228D01*
X132890456Y-112680228D02*
X132938075Y-112584990D01*
X132938075Y-112584990D02*
X132985694Y-112537371D01*
X132985694Y-112537371D02*
X133080932Y-112489752D01*
X133080932Y-112489752D02*
X133271408Y-112489752D01*
X133271408Y-112489752D02*
X133366646Y-112537371D01*
X133938075Y-113156419D02*
X133842837Y-113108800D01*
X133842837Y-113108800D02*
X133795218Y-113061180D01*
X133795218Y-113061180D02*
X133747599Y-112965942D01*
X133747599Y-112965942D02*
X133747599Y-112680228D01*
X133747599Y-112680228D02*
X133795218Y-112584990D01*
X133795218Y-112584990D02*
X133842837Y-112537371D01*
X133842837Y-112537371D02*
X133938075Y-112489752D01*
X133938075Y-112489752D02*
X134080932Y-112489752D01*
X134080932Y-112489752D02*
X134176170Y-112537371D01*
X134176170Y-112537371D02*
X134223789Y-112584990D01*
X134223789Y-112584990D02*
X134271408Y-112680228D01*
X134271408Y-112680228D02*
X134271408Y-112965942D01*
X134271408Y-112965942D02*
X134223789Y-113061180D01*
X134223789Y-113061180D02*
X134176170Y-113108800D01*
X134176170Y-113108800D02*
X134080932Y-113156419D01*
X134080932Y-113156419D02*
X133938075Y-113156419D01*
X134699980Y-113156419D02*
X134699980Y-112489752D01*
X134699980Y-112584990D02*
X134747599Y-112537371D01*
X134747599Y-112537371D02*
X134842837Y-112489752D01*
X134842837Y-112489752D02*
X134985694Y-112489752D01*
X134985694Y-112489752D02*
X135080932Y-112537371D01*
X135080932Y-112537371D02*
X135128551Y-112632609D01*
X135128551Y-112632609D02*
X135128551Y-113156419D01*
X135128551Y-112632609D02*
X135176170Y-112537371D01*
X135176170Y-112537371D02*
X135271408Y-112489752D01*
X135271408Y-112489752D02*
X135414265Y-112489752D01*
X135414265Y-112489752D02*
X135509504Y-112537371D01*
X135509504Y-112537371D02*
X135557123Y-112632609D01*
X135557123Y-112632609D02*
X135557123Y-113156419D01*
X136747598Y-112108800D02*
X135890456Y-113394514D01*
X137080932Y-112489752D02*
X137080932Y-113489752D01*
X137080932Y-112537371D02*
X137176170Y-112489752D01*
X137176170Y-112489752D02*
X137366646Y-112489752D01*
X137366646Y-112489752D02*
X137461884Y-112537371D01*
X137461884Y-112537371D02*
X137509503Y-112584990D01*
X137509503Y-112584990D02*
X137557122Y-112680228D01*
X137557122Y-112680228D02*
X137557122Y-112965942D01*
X137557122Y-112965942D02*
X137509503Y-113061180D01*
X137509503Y-113061180D02*
X137461884Y-113108800D01*
X137461884Y-113108800D02*
X137366646Y-113156419D01*
X137366646Y-113156419D02*
X137176170Y-113156419D01*
X137176170Y-113156419D02*
X137080932Y-113108800D01*
X137985694Y-113156419D02*
X137985694Y-112489752D01*
X137985694Y-112680228D02*
X138033313Y-112584990D01*
X138033313Y-112584990D02*
X138080932Y-112537371D01*
X138080932Y-112537371D02*
X138176170Y-112489752D01*
X138176170Y-112489752D02*
X138271408Y-112489752D01*
X138509504Y-112489752D02*
X138747599Y-113156419D01*
X138985694Y-112489752D02*
X138747599Y-113156419D01*
X138747599Y-113156419D02*
X138652361Y-113394514D01*
X138652361Y-113394514D02*
X138604742Y-113442133D01*
X138604742Y-113442133D02*
X138509504Y-113489752D01*
X139795218Y-113156419D02*
X139795218Y-112156419D01*
X139795218Y-113108800D02*
X139699980Y-113156419D01*
X139699980Y-113156419D02*
X139509504Y-113156419D01*
X139509504Y-113156419D02*
X139414266Y-113108800D01*
X139414266Y-113108800D02*
X139366647Y-113061180D01*
X139366647Y-113061180D02*
X139319028Y-112965942D01*
X139319028Y-112965942D02*
X139319028Y-112680228D01*
X139319028Y-112680228D02*
X139366647Y-112584990D01*
X139366647Y-112584990D02*
X139414266Y-112537371D01*
X139414266Y-112537371D02*
X139509504Y-112489752D01*
X139509504Y-112489752D02*
X139699980Y-112489752D01*
X139699980Y-112489752D02*
X139795218Y-112537371D01*
X140271409Y-113156419D02*
X140271409Y-112489752D01*
X140271409Y-112156419D02*
X140223790Y-112204038D01*
X140223790Y-112204038D02*
X140271409Y-112251657D01*
X140271409Y-112251657D02*
X140319028Y-112204038D01*
X140319028Y-112204038D02*
X140271409Y-112156419D01*
X140271409Y-112156419D02*
X140271409Y-112251657D01*
X140747599Y-112489752D02*
X140747599Y-113156419D01*
X140747599Y-112584990D02*
X140795218Y-112537371D01*
X140795218Y-112537371D02*
X140890456Y-112489752D01*
X140890456Y-112489752D02*
X141033313Y-112489752D01*
X141033313Y-112489752D02*
X141128551Y-112537371D01*
X141128551Y-112537371D02*
X141176170Y-112632609D01*
X141176170Y-112632609D02*
X141176170Y-113156419D01*
X142366646Y-112108800D02*
X141509504Y-113394514D01*
X143128551Y-113156419D02*
X143128551Y-112156419D01*
X143128551Y-113108800D02*
X143033313Y-113156419D01*
X143033313Y-113156419D02*
X142842837Y-113156419D01*
X142842837Y-113156419D02*
X142747599Y-113108800D01*
X142747599Y-113108800D02*
X142699980Y-113061180D01*
X142699980Y-113061180D02*
X142652361Y-112965942D01*
X142652361Y-112965942D02*
X142652361Y-112680228D01*
X142652361Y-112680228D02*
X142699980Y-112584990D01*
X142699980Y-112584990D02*
X142747599Y-112537371D01*
X142747599Y-112537371D02*
X142842837Y-112489752D01*
X142842837Y-112489752D02*
X143033313Y-112489752D01*
X143033313Y-112489752D02*
X143128551Y-112537371D01*
X143604742Y-113156419D02*
X143604742Y-112489752D01*
X143604742Y-112156419D02*
X143557123Y-112204038D01*
X143557123Y-112204038D02*
X143604742Y-112251657D01*
X143604742Y-112251657D02*
X143652361Y-112204038D01*
X143652361Y-112204038D02*
X143604742Y-112156419D01*
X143604742Y-112156419D02*
X143604742Y-112251657D01*
X144509503Y-113156419D02*
X144509503Y-112632609D01*
X144509503Y-112632609D02*
X144461884Y-112537371D01*
X144461884Y-112537371D02*
X144366646Y-112489752D01*
X144366646Y-112489752D02*
X144176170Y-112489752D01*
X144176170Y-112489752D02*
X144080932Y-112537371D01*
X144509503Y-113108800D02*
X144414265Y-113156419D01*
X144414265Y-113156419D02*
X144176170Y-113156419D01*
X144176170Y-113156419D02*
X144080932Y-113108800D01*
X144080932Y-113108800D02*
X144033313Y-113013561D01*
X144033313Y-113013561D02*
X144033313Y-112918323D01*
X144033313Y-112918323D02*
X144080932Y-112823085D01*
X144080932Y-112823085D02*
X144176170Y-112775466D01*
X144176170Y-112775466D02*
X144414265Y-112775466D01*
X144414265Y-112775466D02*
X144509503Y-112727847D01*
X144985694Y-113156419D02*
X144985694Y-112489752D01*
X144985694Y-112584990D02*
X145033313Y-112537371D01*
X145033313Y-112537371D02*
X145128551Y-112489752D01*
X145128551Y-112489752D02*
X145271408Y-112489752D01*
X145271408Y-112489752D02*
X145366646Y-112537371D01*
X145366646Y-112537371D02*
X145414265Y-112632609D01*
X145414265Y-112632609D02*
X145414265Y-113156419D01*
X145414265Y-112632609D02*
X145461884Y-112537371D01*
X145461884Y-112537371D02*
X145557122Y-112489752D01*
X145557122Y-112489752D02*
X145699979Y-112489752D01*
X145699979Y-112489752D02*
X145795218Y-112537371D01*
X145795218Y-112537371D02*
X145842837Y-112632609D01*
X145842837Y-112632609D02*
X145842837Y-113156419D01*
X146461884Y-113156419D02*
X146366646Y-113108800D01*
X146366646Y-113108800D02*
X146319027Y-113061180D01*
X146319027Y-113061180D02*
X146271408Y-112965942D01*
X146271408Y-112965942D02*
X146271408Y-112680228D01*
X146271408Y-112680228D02*
X146319027Y-112584990D01*
X146319027Y-112584990D02*
X146366646Y-112537371D01*
X146366646Y-112537371D02*
X146461884Y-112489752D01*
X146461884Y-112489752D02*
X146604741Y-112489752D01*
X146604741Y-112489752D02*
X146699979Y-112537371D01*
X146699979Y-112537371D02*
X146747598Y-112584990D01*
X146747598Y-112584990D02*
X146795217Y-112680228D01*
X146795217Y-112680228D02*
X146795217Y-112965942D01*
X146795217Y-112965942D02*
X146747598Y-113061180D01*
X146747598Y-113061180D02*
X146699979Y-113108800D01*
X146699979Y-113108800D02*
X146604741Y-113156419D01*
X146604741Y-113156419D02*
X146461884Y-113156419D01*
X147223789Y-112489752D02*
X147223789Y-113156419D01*
X147223789Y-112584990D02*
X147271408Y-112537371D01*
X147271408Y-112537371D02*
X147366646Y-112489752D01*
X147366646Y-112489752D02*
X147509503Y-112489752D01*
X147509503Y-112489752D02*
X147604741Y-112537371D01*
X147604741Y-112537371D02*
X147652360Y-112632609D01*
X147652360Y-112632609D02*
X147652360Y-113156419D01*
X148557122Y-113156419D02*
X148557122Y-112156419D01*
X148557122Y-113108800D02*
X148461884Y-113156419D01*
X148461884Y-113156419D02*
X148271408Y-113156419D01*
X148271408Y-113156419D02*
X148176170Y-113108800D01*
X148176170Y-113108800D02*
X148128551Y-113061180D01*
X148128551Y-113061180D02*
X148080932Y-112965942D01*
X148080932Y-112965942D02*
X148080932Y-112680228D01*
X148080932Y-112680228D02*
X148128551Y-112584990D01*
X148128551Y-112584990D02*
X148176170Y-112537371D01*
X148176170Y-112537371D02*
X148271408Y-112489752D01*
X148271408Y-112489752D02*
X148461884Y-112489752D01*
X148461884Y-112489752D02*
X148557122Y-112537371D01*
X149033313Y-112775466D02*
X149795218Y-112775466D01*
X150271408Y-113156419D02*
X150271408Y-112156419D01*
X150271408Y-112537371D02*
X150366646Y-112489752D01*
X150366646Y-112489752D02*
X150557122Y-112489752D01*
X150557122Y-112489752D02*
X150652360Y-112537371D01*
X150652360Y-112537371D02*
X150699979Y-112584990D01*
X150699979Y-112584990D02*
X150747598Y-112680228D01*
X150747598Y-112680228D02*
X150747598Y-112965942D01*
X150747598Y-112965942D02*
X150699979Y-113061180D01*
X150699979Y-113061180D02*
X150652360Y-113108800D01*
X150652360Y-113108800D02*
X150557122Y-113156419D01*
X150557122Y-113156419D02*
X150366646Y-113156419D01*
X150366646Y-113156419D02*
X150271408Y-113108800D01*
X151604741Y-112489752D02*
X151604741Y-113156419D01*
X151176170Y-112489752D02*
X151176170Y-113013561D01*
X151176170Y-113013561D02*
X151223789Y-113108800D01*
X151223789Y-113108800D02*
X151319027Y-113156419D01*
X151319027Y-113156419D02*
X151461884Y-113156419D01*
X151461884Y-113156419D02*
X151557122Y-113108800D01*
X151557122Y-113108800D02*
X151604741Y-113061180D01*
X151938075Y-112489752D02*
X152319027Y-112489752D01*
X152080932Y-113156419D02*
X152080932Y-112299276D01*
X152080932Y-112299276D02*
X152128551Y-112204038D01*
X152128551Y-112204038D02*
X152223789Y-112156419D01*
X152223789Y-112156419D02*
X152319027Y-112156419D01*
X152509504Y-112489752D02*
X152890456Y-112489752D01*
X152652361Y-113156419D02*
X152652361Y-112299276D01*
X152652361Y-112299276D02*
X152699980Y-112204038D01*
X152699980Y-112204038D02*
X152795218Y-112156419D01*
X152795218Y-112156419D02*
X152890456Y-112156419D01*
X153604742Y-113108800D02*
X153509504Y-113156419D01*
X153509504Y-113156419D02*
X153319028Y-113156419D01*
X153319028Y-113156419D02*
X153223790Y-113108800D01*
X153223790Y-113108800D02*
X153176171Y-113013561D01*
X153176171Y-113013561D02*
X153176171Y-112632609D01*
X153176171Y-112632609D02*
X153223790Y-112537371D01*
X153223790Y-112537371D02*
X153319028Y-112489752D01*
X153319028Y-112489752D02*
X153509504Y-112489752D01*
X153509504Y-112489752D02*
X153604742Y-112537371D01*
X153604742Y-112537371D02*
X153652361Y-112632609D01*
X153652361Y-112632609D02*
X153652361Y-112727847D01*
X153652361Y-112727847D02*
X153176171Y-112823085D01*
X154080933Y-113156419D02*
X154080933Y-112489752D01*
X154080933Y-112680228D02*
X154128552Y-112584990D01*
X154128552Y-112584990D02*
X154176171Y-112537371D01*
X154176171Y-112537371D02*
X154271409Y-112489752D01*
X154271409Y-112489752D02*
X154366647Y-112489752D01*
X154699981Y-112775466D02*
X155461886Y-112775466D01*
X156366647Y-113156419D02*
X156366647Y-112632609D01*
X156366647Y-112632609D02*
X156319028Y-112537371D01*
X156319028Y-112537371D02*
X156223790Y-112489752D01*
X156223790Y-112489752D02*
X156033314Y-112489752D01*
X156033314Y-112489752D02*
X155938076Y-112537371D01*
X156366647Y-113108800D02*
X156271409Y-113156419D01*
X156271409Y-113156419D02*
X156033314Y-113156419D01*
X156033314Y-113156419D02*
X155938076Y-113108800D01*
X155938076Y-113108800D02*
X155890457Y-113013561D01*
X155890457Y-113013561D02*
X155890457Y-112918323D01*
X155890457Y-112918323D02*
X155938076Y-112823085D01*
X155938076Y-112823085D02*
X156033314Y-112775466D01*
X156033314Y-112775466D02*
X156271409Y-112775466D01*
X156271409Y-112775466D02*
X156366647Y-112727847D01*
X156842838Y-113156419D02*
X156842838Y-112489752D01*
X156842838Y-112584990D02*
X156890457Y-112537371D01*
X156890457Y-112537371D02*
X156985695Y-112489752D01*
X156985695Y-112489752D02*
X157128552Y-112489752D01*
X157128552Y-112489752D02*
X157223790Y-112537371D01*
X157223790Y-112537371D02*
X157271409Y-112632609D01*
X157271409Y-112632609D02*
X157271409Y-113156419D01*
X157271409Y-112632609D02*
X157319028Y-112537371D01*
X157319028Y-112537371D02*
X157414266Y-112489752D01*
X157414266Y-112489752D02*
X157557123Y-112489752D01*
X157557123Y-112489752D02*
X157652362Y-112537371D01*
X157652362Y-112537371D02*
X157699981Y-112632609D01*
X157699981Y-112632609D02*
X157699981Y-113156419D01*
X158176171Y-112489752D02*
X158176171Y-113489752D01*
X158176171Y-112537371D02*
X158271409Y-112489752D01*
X158271409Y-112489752D02*
X158461885Y-112489752D01*
X158461885Y-112489752D02*
X158557123Y-112537371D01*
X158557123Y-112537371D02*
X158604742Y-112584990D01*
X158604742Y-112584990D02*
X158652361Y-112680228D01*
X158652361Y-112680228D02*
X158652361Y-112965942D01*
X158652361Y-112965942D02*
X158604742Y-113061180D01*
X158604742Y-113061180D02*
X158557123Y-113108800D01*
X158557123Y-113108800D02*
X158461885Y-113156419D01*
X158461885Y-113156419D02*
X158271409Y-113156419D01*
X158271409Y-113156419D02*
X158176171Y-113108800D01*
X111519884Y-54576419D02*
X111519884Y-53576419D01*
X111996074Y-54576419D02*
X111996074Y-53576419D01*
X111996074Y-53576419D02*
X112567502Y-54576419D01*
X112567502Y-54576419D02*
X112567502Y-53576419D01*
X121348038Y-87818306D02*
X121300419Y-87913544D01*
X121300419Y-87913544D02*
X121300419Y-88056401D01*
X121300419Y-88056401D02*
X121348038Y-88199258D01*
X121348038Y-88199258D02*
X121443276Y-88294496D01*
X121443276Y-88294496D02*
X121538514Y-88342115D01*
X121538514Y-88342115D02*
X121728990Y-88389734D01*
X121728990Y-88389734D02*
X121871847Y-88389734D01*
X121871847Y-88389734D02*
X122062323Y-88342115D01*
X122062323Y-88342115D02*
X122157561Y-88294496D01*
X122157561Y-88294496D02*
X122252800Y-88199258D01*
X122252800Y-88199258D02*
X122300419Y-88056401D01*
X122300419Y-88056401D02*
X122300419Y-87961163D01*
X122300419Y-87961163D02*
X122252800Y-87818306D01*
X122252800Y-87818306D02*
X122205180Y-87770687D01*
X122205180Y-87770687D02*
X121871847Y-87770687D01*
X121871847Y-87770687D02*
X121871847Y-87961163D01*
X122300419Y-87342115D02*
X121300419Y-87342115D01*
X121300419Y-87342115D02*
X122300419Y-86770687D01*
X122300419Y-86770687D02*
X121300419Y-86770687D01*
X122300419Y-86294496D02*
X121300419Y-86294496D01*
X121300419Y-86294496D02*
X121300419Y-86056401D01*
X121300419Y-86056401D02*
X121348038Y-85913544D01*
X121348038Y-85913544D02*
X121443276Y-85818306D01*
X121443276Y-85818306D02*
X121538514Y-85770687D01*
X121538514Y-85770687D02*
X121728990Y-85723068D01*
X121728990Y-85723068D02*
X121871847Y-85723068D01*
X121871847Y-85723068D02*
X122062323Y-85770687D01*
X122062323Y-85770687D02*
X122157561Y-85818306D01*
X122157561Y-85818306D02*
X122252800Y-85913544D01*
X122252800Y-85913544D02*
X122300419Y-86056401D01*
X122300419Y-86056401D02*
X122300419Y-86294496D01*
X112043693Y-61564038D02*
X111948455Y-61516419D01*
X111948455Y-61516419D02*
X111805598Y-61516419D01*
X111805598Y-61516419D02*
X111662741Y-61564038D01*
X111662741Y-61564038D02*
X111567503Y-61659276D01*
X111567503Y-61659276D02*
X111519884Y-61754514D01*
X111519884Y-61754514D02*
X111472265Y-61944990D01*
X111472265Y-61944990D02*
X111472265Y-62087847D01*
X111472265Y-62087847D02*
X111519884Y-62278323D01*
X111519884Y-62278323D02*
X111567503Y-62373561D01*
X111567503Y-62373561D02*
X111662741Y-62468800D01*
X111662741Y-62468800D02*
X111805598Y-62516419D01*
X111805598Y-62516419D02*
X111900836Y-62516419D01*
X111900836Y-62516419D02*
X112043693Y-62468800D01*
X112043693Y-62468800D02*
X112091312Y-62421180D01*
X112091312Y-62421180D02*
X112091312Y-62087847D01*
X112091312Y-62087847D02*
X111900836Y-62087847D01*
X112519884Y-62516419D02*
X112519884Y-61516419D01*
X112519884Y-61516419D02*
X113091312Y-62516419D01*
X113091312Y-62516419D02*
X113091312Y-61516419D01*
X113567503Y-62516419D02*
X113567503Y-61516419D01*
X113567503Y-61516419D02*
X113805598Y-61516419D01*
X113805598Y-61516419D02*
X113948455Y-61564038D01*
X113948455Y-61564038D02*
X114043693Y-61659276D01*
X114043693Y-61659276D02*
X114091312Y-61754514D01*
X114091312Y-61754514D02*
X114138931Y-61944990D01*
X114138931Y-61944990D02*
X114138931Y-62087847D01*
X114138931Y-62087847D02*
X114091312Y-62278323D01*
X114091312Y-62278323D02*
X114043693Y-62373561D01*
X114043693Y-62373561D02*
X113948455Y-62468800D01*
X113948455Y-62468800D02*
X113805598Y-62516419D01*
X113805598Y-62516419D02*
X113567503Y-62516419D01*
X162943217Y-73516609D02*
X163086074Y-73564228D01*
X163086074Y-73564228D02*
X163133693Y-73611847D01*
X163133693Y-73611847D02*
X163181312Y-73707085D01*
X163181312Y-73707085D02*
X163181312Y-73849942D01*
X163181312Y-73849942D02*
X163133693Y-73945180D01*
X163133693Y-73945180D02*
X163086074Y-73992800D01*
X163086074Y-73992800D02*
X162990836Y-74040419D01*
X162990836Y-74040419D02*
X162609884Y-74040419D01*
X162609884Y-74040419D02*
X162609884Y-73040419D01*
X162609884Y-73040419D02*
X162943217Y-73040419D01*
X162943217Y-73040419D02*
X163038455Y-73088038D01*
X163038455Y-73088038D02*
X163086074Y-73135657D01*
X163086074Y-73135657D02*
X163133693Y-73230895D01*
X163133693Y-73230895D02*
X163133693Y-73326133D01*
X163133693Y-73326133D02*
X163086074Y-73421371D01*
X163086074Y-73421371D02*
X163038455Y-73468990D01*
X163038455Y-73468990D02*
X162943217Y-73516609D01*
X162943217Y-73516609D02*
X162609884Y-73516609D01*
X163609884Y-73659466D02*
X164371789Y-73659466D01*
X163990836Y-74040419D02*
X163990836Y-73278514D01*
X136984800Y-81785734D02*
X137032419Y-81642877D01*
X137032419Y-81642877D02*
X137032419Y-81404782D01*
X137032419Y-81404782D02*
X136984800Y-81309544D01*
X136984800Y-81309544D02*
X136937180Y-81261925D01*
X136937180Y-81261925D02*
X136841942Y-81214306D01*
X136841942Y-81214306D02*
X136746704Y-81214306D01*
X136746704Y-81214306D02*
X136651466Y-81261925D01*
X136651466Y-81261925D02*
X136603847Y-81309544D01*
X136603847Y-81309544D02*
X136556228Y-81404782D01*
X136556228Y-81404782D02*
X136508609Y-81595258D01*
X136508609Y-81595258D02*
X136460990Y-81690496D01*
X136460990Y-81690496D02*
X136413371Y-81738115D01*
X136413371Y-81738115D02*
X136318133Y-81785734D01*
X136318133Y-81785734D02*
X136222895Y-81785734D01*
X136222895Y-81785734D02*
X136127657Y-81738115D01*
X136127657Y-81738115D02*
X136080038Y-81690496D01*
X136080038Y-81690496D02*
X136032419Y-81595258D01*
X136032419Y-81595258D02*
X136032419Y-81357163D01*
X136032419Y-81357163D02*
X136080038Y-81214306D01*
X137032419Y-80785734D02*
X136032419Y-80785734D01*
X136032419Y-80785734D02*
X136032419Y-80404782D01*
X136032419Y-80404782D02*
X136080038Y-80309544D01*
X136080038Y-80309544D02*
X136127657Y-80261925D01*
X136127657Y-80261925D02*
X136222895Y-80214306D01*
X136222895Y-80214306D02*
X136365752Y-80214306D01*
X136365752Y-80214306D02*
X136460990Y-80261925D01*
X136460990Y-80261925D02*
X136508609Y-80309544D01*
X136508609Y-80309544D02*
X136556228Y-80404782D01*
X136556228Y-80404782D02*
X136556228Y-80785734D01*
X137032419Y-79785734D02*
X136032419Y-79785734D01*
X137032419Y-79214306D02*
X136460990Y-79642877D01*
X136032419Y-79214306D02*
X136603847Y-79785734D01*
D11*
X110602819Y-102338094D02*
X109602819Y-102338094D01*
X109602819Y-102338094D02*
X109602819Y-102099999D01*
X109602819Y-102099999D02*
X109650438Y-101957142D01*
X109650438Y-101957142D02*
X109745676Y-101861904D01*
X109745676Y-101861904D02*
X109840914Y-101814285D01*
X109840914Y-101814285D02*
X110031390Y-101766666D01*
X110031390Y-101766666D02*
X110174247Y-101766666D01*
X110174247Y-101766666D02*
X110364723Y-101814285D01*
X110364723Y-101814285D02*
X110459961Y-101861904D01*
X110459961Y-101861904D02*
X110555200Y-101957142D01*
X110555200Y-101957142D02*
X110602819Y-102099999D01*
X110602819Y-102099999D02*
X110602819Y-102338094D01*
X110602819Y-100814285D02*
X110602819Y-101385713D01*
X110602819Y-101099999D02*
X109602819Y-101099999D01*
X109602819Y-101099999D02*
X109745676Y-101195237D01*
X109745676Y-101195237D02*
X109840914Y-101290475D01*
X109840914Y-101290475D02*
X109888533Y-101385713D01*
X110922819Y-105671904D02*
X109922819Y-105671904D01*
X110922819Y-105100476D02*
X110351390Y-105529047D01*
X109922819Y-105100476D02*
X110494247Y-105671904D01*
X105086682Y-107039580D02*
X105039063Y-107087200D01*
X105039063Y-107087200D02*
X104896206Y-107134819D01*
X104896206Y-107134819D02*
X104800968Y-107134819D01*
X104800968Y-107134819D02*
X104658111Y-107087200D01*
X104658111Y-107087200D02*
X104562873Y-106991961D01*
X104562873Y-106991961D02*
X104515254Y-106896723D01*
X104515254Y-106896723D02*
X104467635Y-106706247D01*
X104467635Y-106706247D02*
X104467635Y-106563390D01*
X104467635Y-106563390D02*
X104515254Y-106372914D01*
X104515254Y-106372914D02*
X104562873Y-106277676D01*
X104562873Y-106277676D02*
X104658111Y-106182438D01*
X104658111Y-106182438D02*
X104800968Y-106134819D01*
X104800968Y-106134819D02*
X104896206Y-106134819D01*
X104896206Y-106134819D02*
X105039063Y-106182438D01*
X105039063Y-106182438D02*
X105086682Y-106230057D01*
X106039063Y-107134819D02*
X105467635Y-107134819D01*
X105753349Y-107134819D02*
X105753349Y-106134819D01*
X105753349Y-106134819D02*
X105658111Y-106277676D01*
X105658111Y-106277676D02*
X105562873Y-106372914D01*
X105562873Y-106372914D02*
X105467635Y-106420533D01*
X122039142Y-68922819D02*
X121705809Y-68446628D01*
X121467714Y-68922819D02*
X121467714Y-67922819D01*
X121467714Y-67922819D02*
X121848666Y-67922819D01*
X121848666Y-67922819D02*
X121943904Y-67970438D01*
X121943904Y-67970438D02*
X121991523Y-68018057D01*
X121991523Y-68018057D02*
X122039142Y-68113295D01*
X122039142Y-68113295D02*
X122039142Y-68256152D01*
X122039142Y-68256152D02*
X121991523Y-68351390D01*
X121991523Y-68351390D02*
X121943904Y-68399009D01*
X121943904Y-68399009D02*
X121848666Y-68446628D01*
X121848666Y-68446628D02*
X121467714Y-68446628D01*
X122991523Y-68922819D02*
X122420095Y-68922819D01*
X122705809Y-68922819D02*
X122705809Y-67922819D01*
X122705809Y-67922819D02*
X122610571Y-68065676D01*
X122610571Y-68065676D02*
X122515333Y-68160914D01*
X122515333Y-68160914D02*
X122420095Y-68208533D01*
X123372476Y-68018057D02*
X123420095Y-67970438D01*
X123420095Y-67970438D02*
X123515333Y-67922819D01*
X123515333Y-67922819D02*
X123753428Y-67922819D01*
X123753428Y-67922819D02*
X123848666Y-67970438D01*
X123848666Y-67970438D02*
X123896285Y-68018057D01*
X123896285Y-68018057D02*
X123943904Y-68113295D01*
X123943904Y-68113295D02*
X123943904Y-68208533D01*
X123943904Y-68208533D02*
X123896285Y-68351390D01*
X123896285Y-68351390D02*
X123324857Y-68922819D01*
X123324857Y-68922819D02*
X123943904Y-68922819D01*
X120499333Y-53243580D02*
X120451714Y-53291200D01*
X120451714Y-53291200D02*
X120308857Y-53338819D01*
X120308857Y-53338819D02*
X120213619Y-53338819D01*
X120213619Y-53338819D02*
X120070762Y-53291200D01*
X120070762Y-53291200D02*
X119975524Y-53195961D01*
X119975524Y-53195961D02*
X119927905Y-53100723D01*
X119927905Y-53100723D02*
X119880286Y-52910247D01*
X119880286Y-52910247D02*
X119880286Y-52767390D01*
X119880286Y-52767390D02*
X119927905Y-52576914D01*
X119927905Y-52576914D02*
X119975524Y-52481676D01*
X119975524Y-52481676D02*
X120070762Y-52386438D01*
X120070762Y-52386438D02*
X120213619Y-52338819D01*
X120213619Y-52338819D02*
X120308857Y-52338819D01*
X120308857Y-52338819D02*
X120451714Y-52386438D01*
X120451714Y-52386438D02*
X120499333Y-52434057D01*
X121404095Y-52338819D02*
X120927905Y-52338819D01*
X120927905Y-52338819D02*
X120880286Y-52815009D01*
X120880286Y-52815009D02*
X120927905Y-52767390D01*
X120927905Y-52767390D02*
X121023143Y-52719771D01*
X121023143Y-52719771D02*
X121261238Y-52719771D01*
X121261238Y-52719771D02*
X121356476Y-52767390D01*
X121356476Y-52767390D02*
X121404095Y-52815009D01*
X121404095Y-52815009D02*
X121451714Y-52910247D01*
X121451714Y-52910247D02*
X121451714Y-53148342D01*
X121451714Y-53148342D02*
X121404095Y-53243580D01*
X121404095Y-53243580D02*
X121356476Y-53291200D01*
X121356476Y-53291200D02*
X121261238Y-53338819D01*
X121261238Y-53338819D02*
X121023143Y-53338819D01*
X121023143Y-53338819D02*
X120927905Y-53291200D01*
X120927905Y-53291200D02*
X120880286Y-53243580D01*
X162139333Y-100388819D02*
X161806000Y-99912628D01*
X161567905Y-100388819D02*
X161567905Y-99388819D01*
X161567905Y-99388819D02*
X161948857Y-99388819D01*
X161948857Y-99388819D02*
X162044095Y-99436438D01*
X162044095Y-99436438D02*
X162091714Y-99484057D01*
X162091714Y-99484057D02*
X162139333Y-99579295D01*
X162139333Y-99579295D02*
X162139333Y-99722152D01*
X162139333Y-99722152D02*
X162091714Y-99817390D01*
X162091714Y-99817390D02*
X162044095Y-99865009D01*
X162044095Y-99865009D02*
X161948857Y-99912628D01*
X161948857Y-99912628D02*
X161567905Y-99912628D01*
X162996476Y-99388819D02*
X162806000Y-99388819D01*
X162806000Y-99388819D02*
X162710762Y-99436438D01*
X162710762Y-99436438D02*
X162663143Y-99484057D01*
X162663143Y-99484057D02*
X162567905Y-99626914D01*
X162567905Y-99626914D02*
X162520286Y-99817390D01*
X162520286Y-99817390D02*
X162520286Y-100198342D01*
X162520286Y-100198342D02*
X162567905Y-100293580D01*
X162567905Y-100293580D02*
X162615524Y-100341200D01*
X162615524Y-100341200D02*
X162710762Y-100388819D01*
X162710762Y-100388819D02*
X162901238Y-100388819D01*
X162901238Y-100388819D02*
X162996476Y-100341200D01*
X162996476Y-100341200D02*
X163044095Y-100293580D01*
X163044095Y-100293580D02*
X163091714Y-100198342D01*
X163091714Y-100198342D02*
X163091714Y-99960247D01*
X163091714Y-99960247D02*
X163044095Y-99865009D01*
X163044095Y-99865009D02*
X162996476Y-99817390D01*
X162996476Y-99817390D02*
X162901238Y-99769771D01*
X162901238Y-99769771D02*
X162710762Y-99769771D01*
X162710762Y-99769771D02*
X162615524Y-99817390D01*
X162615524Y-99817390D02*
X162567905Y-99865009D01*
X162567905Y-99865009D02*
X162520286Y-99960247D01*
D10*
X155921419Y-70183333D02*
X156635704Y-70183333D01*
X156635704Y-70183333D02*
X156778561Y-70230952D01*
X156778561Y-70230952D02*
X156873800Y-70326190D01*
X156873800Y-70326190D02*
X156921419Y-70469047D01*
X156921419Y-70469047D02*
X156921419Y-70564285D01*
X155921419Y-69802380D02*
X155921419Y-69183333D01*
X155921419Y-69183333D02*
X156302371Y-69516666D01*
X156302371Y-69516666D02*
X156302371Y-69373809D01*
X156302371Y-69373809D02*
X156349990Y-69278571D01*
X156349990Y-69278571D02*
X156397609Y-69230952D01*
X156397609Y-69230952D02*
X156492847Y-69183333D01*
X156492847Y-69183333D02*
X156730942Y-69183333D01*
X156730942Y-69183333D02*
X156826180Y-69230952D01*
X156826180Y-69230952D02*
X156873800Y-69278571D01*
X156873800Y-69278571D02*
X156921419Y-69373809D01*
X156921419Y-69373809D02*
X156921419Y-69659523D01*
X156921419Y-69659523D02*
X156873800Y-69754761D01*
X156873800Y-69754761D02*
X156826180Y-69802380D01*
D11*
X111670819Y-59007333D02*
X112385104Y-59007333D01*
X112385104Y-59007333D02*
X112527961Y-59054952D01*
X112527961Y-59054952D02*
X112623200Y-59150190D01*
X112623200Y-59150190D02*
X112670819Y-59293047D01*
X112670819Y-59293047D02*
X112670819Y-59388285D01*
X112670819Y-58007333D02*
X112670819Y-58578761D01*
X112670819Y-58293047D02*
X111670819Y-58293047D01*
X111670819Y-58293047D02*
X111813676Y-58388285D01*
X111813676Y-58388285D02*
X111908914Y-58483523D01*
X111908914Y-58483523D02*
X111956533Y-58578761D01*
X146137333Y-75677580D02*
X146089714Y-75725200D01*
X146089714Y-75725200D02*
X145946857Y-75772819D01*
X145946857Y-75772819D02*
X145851619Y-75772819D01*
X145851619Y-75772819D02*
X145708762Y-75725200D01*
X145708762Y-75725200D02*
X145613524Y-75629961D01*
X145613524Y-75629961D02*
X145565905Y-75534723D01*
X145565905Y-75534723D02*
X145518286Y-75344247D01*
X145518286Y-75344247D02*
X145518286Y-75201390D01*
X145518286Y-75201390D02*
X145565905Y-75010914D01*
X145565905Y-75010914D02*
X145613524Y-74915676D01*
X145613524Y-74915676D02*
X145708762Y-74820438D01*
X145708762Y-74820438D02*
X145851619Y-74772819D01*
X145851619Y-74772819D02*
X145946857Y-74772819D01*
X145946857Y-74772819D02*
X146089714Y-74820438D01*
X146089714Y-74820438D02*
X146137333Y-74868057D01*
X146518286Y-74868057D02*
X146565905Y-74820438D01*
X146565905Y-74820438D02*
X146661143Y-74772819D01*
X146661143Y-74772819D02*
X146899238Y-74772819D01*
X146899238Y-74772819D02*
X146994476Y-74820438D01*
X146994476Y-74820438D02*
X147042095Y-74868057D01*
X147042095Y-74868057D02*
X147089714Y-74963295D01*
X147089714Y-74963295D02*
X147089714Y-75058533D01*
X147089714Y-75058533D02*
X147042095Y-75201390D01*
X147042095Y-75201390D02*
X146470667Y-75772819D01*
X146470667Y-75772819D02*
X147089714Y-75772819D01*
X156805333Y-61668819D02*
X156472000Y-61192628D01*
X156233905Y-61668819D02*
X156233905Y-60668819D01*
X156233905Y-60668819D02*
X156614857Y-60668819D01*
X156614857Y-60668819D02*
X156710095Y-60716438D01*
X156710095Y-60716438D02*
X156757714Y-60764057D01*
X156757714Y-60764057D02*
X156805333Y-60859295D01*
X156805333Y-60859295D02*
X156805333Y-61002152D01*
X156805333Y-61002152D02*
X156757714Y-61097390D01*
X156757714Y-61097390D02*
X156710095Y-61145009D01*
X156710095Y-61145009D02*
X156614857Y-61192628D01*
X156614857Y-61192628D02*
X156233905Y-61192628D01*
X157138667Y-60668819D02*
X157805333Y-60668819D01*
X157805333Y-60668819D02*
X157376762Y-61668819D01*
X175324057Y-72623238D02*
X175276438Y-72718476D01*
X175276438Y-72718476D02*
X175181200Y-72813714D01*
X175181200Y-72813714D02*
X175038342Y-72956571D01*
X175038342Y-72956571D02*
X174990723Y-73051809D01*
X174990723Y-73051809D02*
X174990723Y-73147047D01*
X175228819Y-73099428D02*
X175181200Y-73194666D01*
X175181200Y-73194666D02*
X175085961Y-73289904D01*
X175085961Y-73289904D02*
X174895485Y-73337523D01*
X174895485Y-73337523D02*
X174562152Y-73337523D01*
X174562152Y-73337523D02*
X174371676Y-73289904D01*
X174371676Y-73289904D02*
X174276438Y-73194666D01*
X174276438Y-73194666D02*
X174228819Y-73099428D01*
X174228819Y-73099428D02*
X174228819Y-72908952D01*
X174228819Y-72908952D02*
X174276438Y-72813714D01*
X174276438Y-72813714D02*
X174371676Y-72718476D01*
X174371676Y-72718476D02*
X174562152Y-72670857D01*
X174562152Y-72670857D02*
X174895485Y-72670857D01*
X174895485Y-72670857D02*
X175085961Y-72718476D01*
X175085961Y-72718476D02*
X175181200Y-72813714D01*
X175181200Y-72813714D02*
X175228819Y-72908952D01*
X175228819Y-72908952D02*
X175228819Y-73099428D01*
X174228819Y-72337523D02*
X174228819Y-71718476D01*
X174228819Y-71718476D02*
X174609771Y-72051809D01*
X174609771Y-72051809D02*
X174609771Y-71908952D01*
X174609771Y-71908952D02*
X174657390Y-71813714D01*
X174657390Y-71813714D02*
X174705009Y-71766095D01*
X174705009Y-71766095D02*
X174800247Y-71718476D01*
X174800247Y-71718476D02*
X175038342Y-71718476D01*
X175038342Y-71718476D02*
X175133580Y-71766095D01*
X175133580Y-71766095D02*
X175181200Y-71813714D01*
X175181200Y-71813714D02*
X175228819Y-71908952D01*
X175228819Y-71908952D02*
X175228819Y-72194666D01*
X175228819Y-72194666D02*
X175181200Y-72289904D01*
X175181200Y-72289904D02*
X175133580Y-72337523D01*
X104594819Y-90844666D02*
X104118628Y-91177999D01*
X104594819Y-91416094D02*
X103594819Y-91416094D01*
X103594819Y-91416094D02*
X103594819Y-91035142D01*
X103594819Y-91035142D02*
X103642438Y-90939904D01*
X103642438Y-90939904D02*
X103690057Y-90892285D01*
X103690057Y-90892285D02*
X103785295Y-90844666D01*
X103785295Y-90844666D02*
X103928152Y-90844666D01*
X103928152Y-90844666D02*
X104023390Y-90892285D01*
X104023390Y-90892285D02*
X104071009Y-90939904D01*
X104071009Y-90939904D02*
X104118628Y-91035142D01*
X104118628Y-91035142D02*
X104118628Y-91416094D01*
X103594819Y-90511332D02*
X103594819Y-89892285D01*
X103594819Y-89892285D02*
X103975771Y-90225618D01*
X103975771Y-90225618D02*
X103975771Y-90082761D01*
X103975771Y-90082761D02*
X104023390Y-89987523D01*
X104023390Y-89987523D02*
X104071009Y-89939904D01*
X104071009Y-89939904D02*
X104166247Y-89892285D01*
X104166247Y-89892285D02*
X104404342Y-89892285D01*
X104404342Y-89892285D02*
X104499580Y-89939904D01*
X104499580Y-89939904D02*
X104547200Y-89987523D01*
X104547200Y-89987523D02*
X104594819Y-90082761D01*
X104594819Y-90082761D02*
X104594819Y-90368475D01*
X104594819Y-90368475D02*
X104547200Y-90463713D01*
X104547200Y-90463713D02*
X104499580Y-90511332D01*
X101241580Y-79668666D02*
X101289200Y-79716285D01*
X101289200Y-79716285D02*
X101336819Y-79859142D01*
X101336819Y-79859142D02*
X101336819Y-79954380D01*
X101336819Y-79954380D02*
X101289200Y-80097237D01*
X101289200Y-80097237D02*
X101193961Y-80192475D01*
X101193961Y-80192475D02*
X101098723Y-80240094D01*
X101098723Y-80240094D02*
X100908247Y-80287713D01*
X100908247Y-80287713D02*
X100765390Y-80287713D01*
X100765390Y-80287713D02*
X100574914Y-80240094D01*
X100574914Y-80240094D02*
X100479676Y-80192475D01*
X100479676Y-80192475D02*
X100384438Y-80097237D01*
X100384438Y-80097237D02*
X100336819Y-79954380D01*
X100336819Y-79954380D02*
X100336819Y-79859142D01*
X100336819Y-79859142D02*
X100384438Y-79716285D01*
X100384438Y-79716285D02*
X100432057Y-79668666D01*
X100336819Y-79335332D02*
X100336819Y-78716285D01*
X100336819Y-78716285D02*
X100717771Y-79049618D01*
X100717771Y-79049618D02*
X100717771Y-78906761D01*
X100717771Y-78906761D02*
X100765390Y-78811523D01*
X100765390Y-78811523D02*
X100813009Y-78763904D01*
X100813009Y-78763904D02*
X100908247Y-78716285D01*
X100908247Y-78716285D02*
X101146342Y-78716285D01*
X101146342Y-78716285D02*
X101241580Y-78763904D01*
X101241580Y-78763904D02*
X101289200Y-78811523D01*
X101289200Y-78811523D02*
X101336819Y-78906761D01*
X101336819Y-78906761D02*
X101336819Y-79192475D01*
X101336819Y-79192475D02*
X101289200Y-79287713D01*
X101289200Y-79287713D02*
X101241580Y-79335332D01*
X112101333Y-89049580D02*
X112053714Y-89097200D01*
X112053714Y-89097200D02*
X111910857Y-89144819D01*
X111910857Y-89144819D02*
X111815619Y-89144819D01*
X111815619Y-89144819D02*
X111672762Y-89097200D01*
X111672762Y-89097200D02*
X111577524Y-89001961D01*
X111577524Y-89001961D02*
X111529905Y-88906723D01*
X111529905Y-88906723D02*
X111482286Y-88716247D01*
X111482286Y-88716247D02*
X111482286Y-88573390D01*
X111482286Y-88573390D02*
X111529905Y-88382914D01*
X111529905Y-88382914D02*
X111577524Y-88287676D01*
X111577524Y-88287676D02*
X111672762Y-88192438D01*
X111672762Y-88192438D02*
X111815619Y-88144819D01*
X111815619Y-88144819D02*
X111910857Y-88144819D01*
X111910857Y-88144819D02*
X112053714Y-88192438D01*
X112053714Y-88192438D02*
X112101333Y-88240057D01*
X112672762Y-88573390D02*
X112577524Y-88525771D01*
X112577524Y-88525771D02*
X112529905Y-88478152D01*
X112529905Y-88478152D02*
X112482286Y-88382914D01*
X112482286Y-88382914D02*
X112482286Y-88335295D01*
X112482286Y-88335295D02*
X112529905Y-88240057D01*
X112529905Y-88240057D02*
X112577524Y-88192438D01*
X112577524Y-88192438D02*
X112672762Y-88144819D01*
X112672762Y-88144819D02*
X112863238Y-88144819D01*
X112863238Y-88144819D02*
X112958476Y-88192438D01*
X112958476Y-88192438D02*
X113006095Y-88240057D01*
X113006095Y-88240057D02*
X113053714Y-88335295D01*
X113053714Y-88335295D02*
X113053714Y-88382914D01*
X113053714Y-88382914D02*
X113006095Y-88478152D01*
X113006095Y-88478152D02*
X112958476Y-88525771D01*
X112958476Y-88525771D02*
X112863238Y-88573390D01*
X112863238Y-88573390D02*
X112672762Y-88573390D01*
X112672762Y-88573390D02*
X112577524Y-88621009D01*
X112577524Y-88621009D02*
X112529905Y-88668628D01*
X112529905Y-88668628D02*
X112482286Y-88763866D01*
X112482286Y-88763866D02*
X112482286Y-88954342D01*
X112482286Y-88954342D02*
X112529905Y-89049580D01*
X112529905Y-89049580D02*
X112577524Y-89097200D01*
X112577524Y-89097200D02*
X112672762Y-89144819D01*
X112672762Y-89144819D02*
X112863238Y-89144819D01*
X112863238Y-89144819D02*
X112958476Y-89097200D01*
X112958476Y-89097200D02*
X113006095Y-89049580D01*
X113006095Y-89049580D02*
X113053714Y-88954342D01*
X113053714Y-88954342D02*
X113053714Y-88763866D01*
X113053714Y-88763866D02*
X113006095Y-88668628D01*
X113006095Y-88668628D02*
X112958476Y-88621009D01*
X112958476Y-88621009D02*
X112863238Y-88573390D01*
X111257095Y-75610819D02*
X111257095Y-76420342D01*
X111257095Y-76420342D02*
X111304714Y-76515580D01*
X111304714Y-76515580D02*
X111352333Y-76563200D01*
X111352333Y-76563200D02*
X111447571Y-76610819D01*
X111447571Y-76610819D02*
X111638047Y-76610819D01*
X111638047Y-76610819D02*
X111733285Y-76563200D01*
X111733285Y-76563200D02*
X111780904Y-76515580D01*
X111780904Y-76515580D02*
X111828523Y-76420342D01*
X111828523Y-76420342D02*
X111828523Y-75610819D01*
X112828523Y-76610819D02*
X112257095Y-76610819D01*
X112542809Y-76610819D02*
X112542809Y-75610819D01*
X112542809Y-75610819D02*
X112447571Y-75753676D01*
X112447571Y-75753676D02*
X112352333Y-75848914D01*
X112352333Y-75848914D02*
X112257095Y-75896533D01*
X155281333Y-110504819D02*
X154948000Y-110028628D01*
X154709905Y-110504819D02*
X154709905Y-109504819D01*
X154709905Y-109504819D02*
X155090857Y-109504819D01*
X155090857Y-109504819D02*
X155186095Y-109552438D01*
X155186095Y-109552438D02*
X155233714Y-109600057D01*
X155233714Y-109600057D02*
X155281333Y-109695295D01*
X155281333Y-109695295D02*
X155281333Y-109838152D01*
X155281333Y-109838152D02*
X155233714Y-109933390D01*
X155233714Y-109933390D02*
X155186095Y-109981009D01*
X155186095Y-109981009D02*
X155090857Y-110028628D01*
X155090857Y-110028628D02*
X154709905Y-110028628D01*
X156233714Y-110504819D02*
X155662286Y-110504819D01*
X155948000Y-110504819D02*
X155948000Y-109504819D01*
X155948000Y-109504819D02*
X155852762Y-109647676D01*
X155852762Y-109647676D02*
X155757524Y-109742914D01*
X155757524Y-109742914D02*
X155662286Y-109790533D01*
X142007580Y-58652206D02*
X142055200Y-58699825D01*
X142055200Y-58699825D02*
X142102819Y-58842682D01*
X142102819Y-58842682D02*
X142102819Y-58937920D01*
X142102819Y-58937920D02*
X142055200Y-59080777D01*
X142055200Y-59080777D02*
X141959961Y-59176015D01*
X141959961Y-59176015D02*
X141864723Y-59223634D01*
X141864723Y-59223634D02*
X141674247Y-59271253D01*
X141674247Y-59271253D02*
X141531390Y-59271253D01*
X141531390Y-59271253D02*
X141340914Y-59223634D01*
X141340914Y-59223634D02*
X141245676Y-59176015D01*
X141245676Y-59176015D02*
X141150438Y-59080777D01*
X141150438Y-59080777D02*
X141102819Y-58937920D01*
X141102819Y-58937920D02*
X141102819Y-58842682D01*
X141102819Y-58842682D02*
X141150438Y-58699825D01*
X141150438Y-58699825D02*
X141198057Y-58652206D01*
X142102819Y-57699825D02*
X142102819Y-58271253D01*
X142102819Y-57985539D02*
X141102819Y-57985539D01*
X141102819Y-57985539D02*
X141245676Y-58080777D01*
X141245676Y-58080777D02*
X141340914Y-58176015D01*
X141340914Y-58176015D02*
X141388533Y-58271253D01*
X142102819Y-56747444D02*
X142102819Y-57318872D01*
X142102819Y-57033158D02*
X141102819Y-57033158D01*
X141102819Y-57033158D02*
X141245676Y-57128396D01*
X141245676Y-57128396D02*
X141340914Y-57223634D01*
X141340914Y-57223634D02*
X141388533Y-57318872D01*
X175324057Y-58393238D02*
X175276438Y-58488476D01*
X175276438Y-58488476D02*
X175181200Y-58583714D01*
X175181200Y-58583714D02*
X175038342Y-58726571D01*
X175038342Y-58726571D02*
X174990723Y-58821809D01*
X174990723Y-58821809D02*
X174990723Y-58917047D01*
X175228819Y-58869428D02*
X175181200Y-58964666D01*
X175181200Y-58964666D02*
X175085961Y-59059904D01*
X175085961Y-59059904D02*
X174895485Y-59107523D01*
X174895485Y-59107523D02*
X174562152Y-59107523D01*
X174562152Y-59107523D02*
X174371676Y-59059904D01*
X174371676Y-59059904D02*
X174276438Y-58964666D01*
X174276438Y-58964666D02*
X174228819Y-58869428D01*
X174228819Y-58869428D02*
X174228819Y-58678952D01*
X174228819Y-58678952D02*
X174276438Y-58583714D01*
X174276438Y-58583714D02*
X174371676Y-58488476D01*
X174371676Y-58488476D02*
X174562152Y-58440857D01*
X174562152Y-58440857D02*
X174895485Y-58440857D01*
X174895485Y-58440857D02*
X175085961Y-58488476D01*
X175085961Y-58488476D02*
X175181200Y-58583714D01*
X175181200Y-58583714D02*
X175228819Y-58678952D01*
X175228819Y-58678952D02*
X175228819Y-58869428D01*
X174324057Y-58059904D02*
X174276438Y-58012285D01*
X174276438Y-58012285D02*
X174228819Y-57917047D01*
X174228819Y-57917047D02*
X174228819Y-57678952D01*
X174228819Y-57678952D02*
X174276438Y-57583714D01*
X174276438Y-57583714D02*
X174324057Y-57536095D01*
X174324057Y-57536095D02*
X174419295Y-57488476D01*
X174419295Y-57488476D02*
X174514533Y-57488476D01*
X174514533Y-57488476D02*
X174657390Y-57536095D01*
X174657390Y-57536095D02*
X175228819Y-58107523D01*
X175228819Y-58107523D02*
X175228819Y-57488476D01*
X155281333Y-75130819D02*
X154948000Y-74654628D01*
X154709905Y-75130819D02*
X154709905Y-74130819D01*
X154709905Y-74130819D02*
X155090857Y-74130819D01*
X155090857Y-74130819D02*
X155186095Y-74178438D01*
X155186095Y-74178438D02*
X155233714Y-74226057D01*
X155233714Y-74226057D02*
X155281333Y-74321295D01*
X155281333Y-74321295D02*
X155281333Y-74464152D01*
X155281333Y-74464152D02*
X155233714Y-74559390D01*
X155233714Y-74559390D02*
X155186095Y-74607009D01*
X155186095Y-74607009D02*
X155090857Y-74654628D01*
X155090857Y-74654628D02*
X154709905Y-74654628D01*
X155852762Y-74559390D02*
X155757524Y-74511771D01*
X155757524Y-74511771D02*
X155709905Y-74464152D01*
X155709905Y-74464152D02*
X155662286Y-74368914D01*
X155662286Y-74368914D02*
X155662286Y-74321295D01*
X155662286Y-74321295D02*
X155709905Y-74226057D01*
X155709905Y-74226057D02*
X155757524Y-74178438D01*
X155757524Y-74178438D02*
X155852762Y-74130819D01*
X155852762Y-74130819D02*
X156043238Y-74130819D01*
X156043238Y-74130819D02*
X156138476Y-74178438D01*
X156138476Y-74178438D02*
X156186095Y-74226057D01*
X156186095Y-74226057D02*
X156233714Y-74321295D01*
X156233714Y-74321295D02*
X156233714Y-74368914D01*
X156233714Y-74368914D02*
X156186095Y-74464152D01*
X156186095Y-74464152D02*
X156138476Y-74511771D01*
X156138476Y-74511771D02*
X156043238Y-74559390D01*
X156043238Y-74559390D02*
X155852762Y-74559390D01*
X155852762Y-74559390D02*
X155757524Y-74607009D01*
X155757524Y-74607009D02*
X155709905Y-74654628D01*
X155709905Y-74654628D02*
X155662286Y-74749866D01*
X155662286Y-74749866D02*
X155662286Y-74940342D01*
X155662286Y-74940342D02*
X155709905Y-75035580D01*
X155709905Y-75035580D02*
X155757524Y-75083200D01*
X155757524Y-75083200D02*
X155852762Y-75130819D01*
X155852762Y-75130819D02*
X156043238Y-75130819D01*
X156043238Y-75130819D02*
X156138476Y-75083200D01*
X156138476Y-75083200D02*
X156186095Y-75035580D01*
X156186095Y-75035580D02*
X156233714Y-74940342D01*
X156233714Y-74940342D02*
X156233714Y-74749866D01*
X156233714Y-74749866D02*
X156186095Y-74654628D01*
X156186095Y-74654628D02*
X156138476Y-74607009D01*
X156138476Y-74607009D02*
X156043238Y-74559390D01*
X105498819Y-68714857D02*
X105022628Y-69048190D01*
X105498819Y-69286285D02*
X104498819Y-69286285D01*
X104498819Y-69286285D02*
X104498819Y-68905333D01*
X104498819Y-68905333D02*
X104546438Y-68810095D01*
X104546438Y-68810095D02*
X104594057Y-68762476D01*
X104594057Y-68762476D02*
X104689295Y-68714857D01*
X104689295Y-68714857D02*
X104832152Y-68714857D01*
X104832152Y-68714857D02*
X104927390Y-68762476D01*
X104927390Y-68762476D02*
X104975009Y-68810095D01*
X104975009Y-68810095D02*
X105022628Y-68905333D01*
X105022628Y-68905333D02*
X105022628Y-69286285D01*
X105498819Y-67762476D02*
X105498819Y-68333904D01*
X105498819Y-68048190D02*
X104498819Y-68048190D01*
X104498819Y-68048190D02*
X104641676Y-68143428D01*
X104641676Y-68143428D02*
X104736914Y-68238666D01*
X104736914Y-68238666D02*
X104784533Y-68333904D01*
X104498819Y-67143428D02*
X104498819Y-67048190D01*
X104498819Y-67048190D02*
X104546438Y-66952952D01*
X104546438Y-66952952D02*
X104594057Y-66905333D01*
X104594057Y-66905333D02*
X104689295Y-66857714D01*
X104689295Y-66857714D02*
X104879771Y-66810095D01*
X104879771Y-66810095D02*
X105117866Y-66810095D01*
X105117866Y-66810095D02*
X105308342Y-66857714D01*
X105308342Y-66857714D02*
X105403580Y-66905333D01*
X105403580Y-66905333D02*
X105451200Y-66952952D01*
X105451200Y-66952952D02*
X105498819Y-67048190D01*
X105498819Y-67048190D02*
X105498819Y-67143428D01*
X105498819Y-67143428D02*
X105451200Y-67238666D01*
X105451200Y-67238666D02*
X105403580Y-67286285D01*
X105403580Y-67286285D02*
X105308342Y-67333904D01*
X105308342Y-67333904D02*
X105117866Y-67381523D01*
X105117866Y-67381523D02*
X104879771Y-67381523D01*
X104879771Y-67381523D02*
X104689295Y-67333904D01*
X104689295Y-67333904D02*
X104594057Y-67286285D01*
X104594057Y-67286285D02*
X104546438Y-67238666D01*
X104546438Y-67238666D02*
X104498819Y-67143428D01*
X156551333Y-53726819D02*
X156218000Y-53250628D01*
X155979905Y-53726819D02*
X155979905Y-52726819D01*
X155979905Y-52726819D02*
X156360857Y-52726819D01*
X156360857Y-52726819D02*
X156456095Y-52774438D01*
X156456095Y-52774438D02*
X156503714Y-52822057D01*
X156503714Y-52822057D02*
X156551333Y-52917295D01*
X156551333Y-52917295D02*
X156551333Y-53060152D01*
X156551333Y-53060152D02*
X156503714Y-53155390D01*
X156503714Y-53155390D02*
X156456095Y-53203009D01*
X156456095Y-53203009D02*
X156360857Y-53250628D01*
X156360857Y-53250628D02*
X155979905Y-53250628D01*
X156932286Y-52822057D02*
X156979905Y-52774438D01*
X156979905Y-52774438D02*
X157075143Y-52726819D01*
X157075143Y-52726819D02*
X157313238Y-52726819D01*
X157313238Y-52726819D02*
X157408476Y-52774438D01*
X157408476Y-52774438D02*
X157456095Y-52822057D01*
X157456095Y-52822057D02*
X157503714Y-52917295D01*
X157503714Y-52917295D02*
X157503714Y-53012533D01*
X157503714Y-53012533D02*
X157456095Y-53155390D01*
X157456095Y-53155390D02*
X156884667Y-53726819D01*
X156884667Y-53726819D02*
X157503714Y-53726819D01*
X155281333Y-100530819D02*
X154948000Y-100054628D01*
X154709905Y-100530819D02*
X154709905Y-99530819D01*
X154709905Y-99530819D02*
X155090857Y-99530819D01*
X155090857Y-99530819D02*
X155186095Y-99578438D01*
X155186095Y-99578438D02*
X155233714Y-99626057D01*
X155233714Y-99626057D02*
X155281333Y-99721295D01*
X155281333Y-99721295D02*
X155281333Y-99864152D01*
X155281333Y-99864152D02*
X155233714Y-99959390D01*
X155233714Y-99959390D02*
X155186095Y-100007009D01*
X155186095Y-100007009D02*
X155090857Y-100054628D01*
X155090857Y-100054628D02*
X154709905Y-100054628D01*
X155757524Y-100530819D02*
X155948000Y-100530819D01*
X155948000Y-100530819D02*
X156043238Y-100483200D01*
X156043238Y-100483200D02*
X156090857Y-100435580D01*
X156090857Y-100435580D02*
X156186095Y-100292723D01*
X156186095Y-100292723D02*
X156233714Y-100102247D01*
X156233714Y-100102247D02*
X156233714Y-99721295D01*
X156233714Y-99721295D02*
X156186095Y-99626057D01*
X156186095Y-99626057D02*
X156138476Y-99578438D01*
X156138476Y-99578438D02*
X156043238Y-99530819D01*
X156043238Y-99530819D02*
X155852762Y-99530819D01*
X155852762Y-99530819D02*
X155757524Y-99578438D01*
X155757524Y-99578438D02*
X155709905Y-99626057D01*
X155709905Y-99626057D02*
X155662286Y-99721295D01*
X155662286Y-99721295D02*
X155662286Y-99959390D01*
X155662286Y-99959390D02*
X155709905Y-100054628D01*
X155709905Y-100054628D02*
X155757524Y-100102247D01*
X155757524Y-100102247D02*
X155852762Y-100149866D01*
X155852762Y-100149866D02*
X156043238Y-100149866D01*
X156043238Y-100149866D02*
X156138476Y-100102247D01*
X156138476Y-100102247D02*
X156186095Y-100054628D01*
X156186095Y-100054628D02*
X156233714Y-99959390D01*
X130389333Y-100689580D02*
X130341714Y-100737200D01*
X130341714Y-100737200D02*
X130198857Y-100784819D01*
X130198857Y-100784819D02*
X130103619Y-100784819D01*
X130103619Y-100784819D02*
X129960762Y-100737200D01*
X129960762Y-100737200D02*
X129865524Y-100641961D01*
X129865524Y-100641961D02*
X129817905Y-100546723D01*
X129817905Y-100546723D02*
X129770286Y-100356247D01*
X129770286Y-100356247D02*
X129770286Y-100213390D01*
X129770286Y-100213390D02*
X129817905Y-100022914D01*
X129817905Y-100022914D02*
X129865524Y-99927676D01*
X129865524Y-99927676D02*
X129960762Y-99832438D01*
X129960762Y-99832438D02*
X130103619Y-99784819D01*
X130103619Y-99784819D02*
X130198857Y-99784819D01*
X130198857Y-99784819D02*
X130341714Y-99832438D01*
X130341714Y-99832438D02*
X130389333Y-99880057D01*
X131246476Y-99784819D02*
X131056000Y-99784819D01*
X131056000Y-99784819D02*
X130960762Y-99832438D01*
X130960762Y-99832438D02*
X130913143Y-99880057D01*
X130913143Y-99880057D02*
X130817905Y-100022914D01*
X130817905Y-100022914D02*
X130770286Y-100213390D01*
X130770286Y-100213390D02*
X130770286Y-100594342D01*
X130770286Y-100594342D02*
X130817905Y-100689580D01*
X130817905Y-100689580D02*
X130865524Y-100737200D01*
X130865524Y-100737200D02*
X130960762Y-100784819D01*
X130960762Y-100784819D02*
X131151238Y-100784819D01*
X131151238Y-100784819D02*
X131246476Y-100737200D01*
X131246476Y-100737200D02*
X131294095Y-100689580D01*
X131294095Y-100689580D02*
X131341714Y-100594342D01*
X131341714Y-100594342D02*
X131341714Y-100356247D01*
X131341714Y-100356247D02*
X131294095Y-100261009D01*
X131294095Y-100261009D02*
X131246476Y-100213390D01*
X131246476Y-100213390D02*
X131151238Y-100165771D01*
X131151238Y-100165771D02*
X130960762Y-100165771D01*
X130960762Y-100165771D02*
X130865524Y-100213390D01*
X130865524Y-100213390D02*
X130817905Y-100261009D01*
X130817905Y-100261009D02*
X130770286Y-100356247D01*
X152854819Y-90146094D02*
X151854819Y-90146094D01*
X151854819Y-90146094D02*
X151854819Y-89907999D01*
X151854819Y-89907999D02*
X151902438Y-89765142D01*
X151902438Y-89765142D02*
X151997676Y-89669904D01*
X151997676Y-89669904D02*
X152092914Y-89622285D01*
X152092914Y-89622285D02*
X152283390Y-89574666D01*
X152283390Y-89574666D02*
X152426247Y-89574666D01*
X152426247Y-89574666D02*
X152616723Y-89622285D01*
X152616723Y-89622285D02*
X152711961Y-89669904D01*
X152711961Y-89669904D02*
X152807200Y-89765142D01*
X152807200Y-89765142D02*
X152854819Y-89907999D01*
X152854819Y-89907999D02*
X152854819Y-90146094D01*
X151950057Y-89193713D02*
X151902438Y-89146094D01*
X151902438Y-89146094D02*
X151854819Y-89050856D01*
X151854819Y-89050856D02*
X151854819Y-88812761D01*
X151854819Y-88812761D02*
X151902438Y-88717523D01*
X151902438Y-88717523D02*
X151950057Y-88669904D01*
X151950057Y-88669904D02*
X152045295Y-88622285D01*
X152045295Y-88622285D02*
X152140533Y-88622285D01*
X152140533Y-88622285D02*
X152283390Y-88669904D01*
X152283390Y-88669904D02*
X152854819Y-89241332D01*
X152854819Y-89241332D02*
X152854819Y-88622285D01*
X157494819Y-82557904D02*
X156494819Y-82557904D01*
X157494819Y-81986476D02*
X156923390Y-82415047D01*
X156494819Y-81986476D02*
X157066247Y-82557904D01*
X142261580Y-104822857D02*
X142309200Y-104870476D01*
X142309200Y-104870476D02*
X142356819Y-105013333D01*
X142356819Y-105013333D02*
X142356819Y-105108571D01*
X142356819Y-105108571D02*
X142309200Y-105251428D01*
X142309200Y-105251428D02*
X142213961Y-105346666D01*
X142213961Y-105346666D02*
X142118723Y-105394285D01*
X142118723Y-105394285D02*
X141928247Y-105441904D01*
X141928247Y-105441904D02*
X141785390Y-105441904D01*
X141785390Y-105441904D02*
X141594914Y-105394285D01*
X141594914Y-105394285D02*
X141499676Y-105346666D01*
X141499676Y-105346666D02*
X141404438Y-105251428D01*
X141404438Y-105251428D02*
X141356819Y-105108571D01*
X141356819Y-105108571D02*
X141356819Y-105013333D01*
X141356819Y-105013333D02*
X141404438Y-104870476D01*
X141404438Y-104870476D02*
X141452057Y-104822857D01*
X142356819Y-103870476D02*
X142356819Y-104441904D01*
X142356819Y-104156190D02*
X141356819Y-104156190D01*
X141356819Y-104156190D02*
X141499676Y-104251428D01*
X141499676Y-104251428D02*
X141594914Y-104346666D01*
X141594914Y-104346666D02*
X141642533Y-104441904D01*
X141452057Y-103489523D02*
X141404438Y-103441904D01*
X141404438Y-103441904D02*
X141356819Y-103346666D01*
X141356819Y-103346666D02*
X141356819Y-103108571D01*
X141356819Y-103108571D02*
X141404438Y-103013333D01*
X141404438Y-103013333D02*
X141452057Y-102965714D01*
X141452057Y-102965714D02*
X141547295Y-102918095D01*
X141547295Y-102918095D02*
X141642533Y-102918095D01*
X141642533Y-102918095D02*
X141785390Y-102965714D01*
X141785390Y-102965714D02*
X142356819Y-103537142D01*
X142356819Y-103537142D02*
X142356819Y-102918095D01*
X112101333Y-65082819D02*
X111768000Y-64606628D01*
X111529905Y-65082819D02*
X111529905Y-64082819D01*
X111529905Y-64082819D02*
X111910857Y-64082819D01*
X111910857Y-64082819D02*
X112006095Y-64130438D01*
X112006095Y-64130438D02*
X112053714Y-64178057D01*
X112053714Y-64178057D02*
X112101333Y-64273295D01*
X112101333Y-64273295D02*
X112101333Y-64416152D01*
X112101333Y-64416152D02*
X112053714Y-64511390D01*
X112053714Y-64511390D02*
X112006095Y-64559009D01*
X112006095Y-64559009D02*
X111910857Y-64606628D01*
X111910857Y-64606628D02*
X111529905Y-64606628D01*
X112958476Y-64416152D02*
X112958476Y-65082819D01*
X112720381Y-64035200D02*
X112482286Y-64749485D01*
X112482286Y-64749485D02*
X113101333Y-64749485D01*
X175324057Y-91027238D02*
X175276438Y-91122476D01*
X175276438Y-91122476D02*
X175181200Y-91217714D01*
X175181200Y-91217714D02*
X175038342Y-91360571D01*
X175038342Y-91360571D02*
X174990723Y-91455809D01*
X174990723Y-91455809D02*
X174990723Y-91551047D01*
X175228819Y-91503428D02*
X175181200Y-91598666D01*
X175181200Y-91598666D02*
X175085961Y-91693904D01*
X175085961Y-91693904D02*
X174895485Y-91741523D01*
X174895485Y-91741523D02*
X174562152Y-91741523D01*
X174562152Y-91741523D02*
X174371676Y-91693904D01*
X174371676Y-91693904D02*
X174276438Y-91598666D01*
X174276438Y-91598666D02*
X174228819Y-91503428D01*
X174228819Y-91503428D02*
X174228819Y-91312952D01*
X174228819Y-91312952D02*
X174276438Y-91217714D01*
X174276438Y-91217714D02*
X174371676Y-91122476D01*
X174371676Y-91122476D02*
X174562152Y-91074857D01*
X174562152Y-91074857D02*
X174895485Y-91074857D01*
X174895485Y-91074857D02*
X175085961Y-91122476D01*
X175085961Y-91122476D02*
X175181200Y-91217714D01*
X175181200Y-91217714D02*
X175228819Y-91312952D01*
X175228819Y-91312952D02*
X175228819Y-91503428D01*
X174562152Y-90217714D02*
X175228819Y-90217714D01*
X174181200Y-90455809D02*
X174895485Y-90693904D01*
X174895485Y-90693904D02*
X174895485Y-90074857D01*
X111847333Y-70209580D02*
X111799714Y-70257200D01*
X111799714Y-70257200D02*
X111656857Y-70304819D01*
X111656857Y-70304819D02*
X111561619Y-70304819D01*
X111561619Y-70304819D02*
X111418762Y-70257200D01*
X111418762Y-70257200D02*
X111323524Y-70161961D01*
X111323524Y-70161961D02*
X111275905Y-70066723D01*
X111275905Y-70066723D02*
X111228286Y-69876247D01*
X111228286Y-69876247D02*
X111228286Y-69733390D01*
X111228286Y-69733390D02*
X111275905Y-69542914D01*
X111275905Y-69542914D02*
X111323524Y-69447676D01*
X111323524Y-69447676D02*
X111418762Y-69352438D01*
X111418762Y-69352438D02*
X111561619Y-69304819D01*
X111561619Y-69304819D02*
X111656857Y-69304819D01*
X111656857Y-69304819D02*
X111799714Y-69352438D01*
X111799714Y-69352438D02*
X111847333Y-69400057D01*
X112180667Y-69304819D02*
X112847333Y-69304819D01*
X112847333Y-69304819D02*
X112418762Y-70304819D01*
X156805333Y-65986819D02*
X156472000Y-65510628D01*
X156233905Y-65986819D02*
X156233905Y-64986819D01*
X156233905Y-64986819D02*
X156614857Y-64986819D01*
X156614857Y-64986819D02*
X156710095Y-65034438D01*
X156710095Y-65034438D02*
X156757714Y-65082057D01*
X156757714Y-65082057D02*
X156805333Y-65177295D01*
X156805333Y-65177295D02*
X156805333Y-65320152D01*
X156805333Y-65320152D02*
X156757714Y-65415390D01*
X156757714Y-65415390D02*
X156710095Y-65463009D01*
X156710095Y-65463009D02*
X156614857Y-65510628D01*
X156614857Y-65510628D02*
X156233905Y-65510628D01*
X157710095Y-64986819D02*
X157233905Y-64986819D01*
X157233905Y-64986819D02*
X157186286Y-65463009D01*
X157186286Y-65463009D02*
X157233905Y-65415390D01*
X157233905Y-65415390D02*
X157329143Y-65367771D01*
X157329143Y-65367771D02*
X157567238Y-65367771D01*
X157567238Y-65367771D02*
X157662476Y-65415390D01*
X157662476Y-65415390D02*
X157710095Y-65463009D01*
X157710095Y-65463009D02*
X157757714Y-65558247D01*
X157757714Y-65558247D02*
X157757714Y-65796342D01*
X157757714Y-65796342D02*
X157710095Y-65891580D01*
X157710095Y-65891580D02*
X157662476Y-65939200D01*
X157662476Y-65939200D02*
X157567238Y-65986819D01*
X157567238Y-65986819D02*
X157329143Y-65986819D01*
X157329143Y-65986819D02*
X157233905Y-65939200D01*
X157233905Y-65939200D02*
X157186286Y-65891580D01*
X134380819Y-82684857D02*
X133904628Y-83018190D01*
X134380819Y-83256285D02*
X133380819Y-83256285D01*
X133380819Y-83256285D02*
X133380819Y-82875333D01*
X133380819Y-82875333D02*
X133428438Y-82780095D01*
X133428438Y-82780095D02*
X133476057Y-82732476D01*
X133476057Y-82732476D02*
X133571295Y-82684857D01*
X133571295Y-82684857D02*
X133714152Y-82684857D01*
X133714152Y-82684857D02*
X133809390Y-82732476D01*
X133809390Y-82732476D02*
X133857009Y-82780095D01*
X133857009Y-82780095D02*
X133904628Y-82875333D01*
X133904628Y-82875333D02*
X133904628Y-83256285D01*
X134380819Y-81732476D02*
X134380819Y-82303904D01*
X134380819Y-82018190D02*
X133380819Y-82018190D01*
X133380819Y-82018190D02*
X133523676Y-82113428D01*
X133523676Y-82113428D02*
X133618914Y-82208666D01*
X133618914Y-82208666D02*
X133666533Y-82303904D01*
X134380819Y-80780095D02*
X134380819Y-81351523D01*
X134380819Y-81065809D02*
X133380819Y-81065809D01*
X133380819Y-81065809D02*
X133523676Y-81161047D01*
X133523676Y-81161047D02*
X133618914Y-81256285D01*
X133618914Y-81256285D02*
X133666533Y-81351523D01*
X119975333Y-64069580D02*
X119927714Y-64117200D01*
X119927714Y-64117200D02*
X119784857Y-64164819D01*
X119784857Y-64164819D02*
X119689619Y-64164819D01*
X119689619Y-64164819D02*
X119546762Y-64117200D01*
X119546762Y-64117200D02*
X119451524Y-64021961D01*
X119451524Y-64021961D02*
X119403905Y-63926723D01*
X119403905Y-63926723D02*
X119356286Y-63736247D01*
X119356286Y-63736247D02*
X119356286Y-63593390D01*
X119356286Y-63593390D02*
X119403905Y-63402914D01*
X119403905Y-63402914D02*
X119451524Y-63307676D01*
X119451524Y-63307676D02*
X119546762Y-63212438D01*
X119546762Y-63212438D02*
X119689619Y-63164819D01*
X119689619Y-63164819D02*
X119784857Y-63164819D01*
X119784857Y-63164819D02*
X119927714Y-63212438D01*
X119927714Y-63212438D02*
X119975333Y-63260057D01*
X120832476Y-63498152D02*
X120832476Y-64164819D01*
X120594381Y-63117200D02*
X120356286Y-63831485D01*
X120356286Y-63831485D02*
X120975333Y-63831485D01*
X175324057Y-105141238D02*
X175276438Y-105236476D01*
X175276438Y-105236476D02*
X175181200Y-105331714D01*
X175181200Y-105331714D02*
X175038342Y-105474571D01*
X175038342Y-105474571D02*
X174990723Y-105569809D01*
X174990723Y-105569809D02*
X174990723Y-105665047D01*
X175228819Y-105617428D02*
X175181200Y-105712666D01*
X175181200Y-105712666D02*
X175085961Y-105807904D01*
X175085961Y-105807904D02*
X174895485Y-105855523D01*
X174895485Y-105855523D02*
X174562152Y-105855523D01*
X174562152Y-105855523D02*
X174371676Y-105807904D01*
X174371676Y-105807904D02*
X174276438Y-105712666D01*
X174276438Y-105712666D02*
X174228819Y-105617428D01*
X174228819Y-105617428D02*
X174228819Y-105426952D01*
X174228819Y-105426952D02*
X174276438Y-105331714D01*
X174276438Y-105331714D02*
X174371676Y-105236476D01*
X174371676Y-105236476D02*
X174562152Y-105188857D01*
X174562152Y-105188857D02*
X174895485Y-105188857D01*
X174895485Y-105188857D02*
X175085961Y-105236476D01*
X175085961Y-105236476D02*
X175181200Y-105331714D01*
X175181200Y-105331714D02*
X175228819Y-105426952D01*
X175228819Y-105426952D02*
X175228819Y-105617428D01*
X175228819Y-104236476D02*
X175228819Y-104807904D01*
X175228819Y-104522190D02*
X174228819Y-104522190D01*
X174228819Y-104522190D02*
X174371676Y-104617428D01*
X174371676Y-104617428D02*
X174466914Y-104712666D01*
X174466914Y-104712666D02*
X174514533Y-104807904D01*
X144983118Y-87466195D02*
X144504562Y-87801185D01*
X144983118Y-88040463D02*
X143978149Y-88040463D01*
X143978149Y-88040463D02*
X143978149Y-87657618D01*
X143978149Y-87657618D02*
X144026005Y-87561907D01*
X144026005Y-87561907D02*
X144073861Y-87514051D01*
X144073861Y-87514051D02*
X144169572Y-87466195D01*
X144169572Y-87466195D02*
X144313139Y-87466195D01*
X144313139Y-87466195D02*
X144408850Y-87514051D01*
X144408850Y-87514051D02*
X144456706Y-87561907D01*
X144456706Y-87561907D02*
X144504562Y-87657618D01*
X144504562Y-87657618D02*
X144504562Y-88040463D01*
X143978149Y-87179061D02*
X144983118Y-86844072D01*
X144983118Y-86844072D02*
X143978149Y-86509082D01*
X144983118Y-85647680D02*
X144983118Y-86221948D01*
X144983118Y-85934814D02*
X143978149Y-85934814D01*
X143978149Y-85934814D02*
X144121716Y-86030525D01*
X144121716Y-86030525D02*
X144217428Y-86126237D01*
X144217428Y-86126237D02*
X144265283Y-86221948D01*
D12*
%TO.C,D1*%
X113388000Y-103720000D02*
X113388000Y-99480000D01*
X113388000Y-99480000D02*
X111148000Y-99480000D01*
X112268000Y-104370000D02*
X112268000Y-103720000D01*
X112268000Y-98830000D02*
X112268000Y-99480000D01*
X111148000Y-103720000D02*
X113388000Y-103720000D01*
X111148000Y-103120000D02*
X113388000Y-103120000D01*
X111148000Y-103000000D02*
X113388000Y-103000000D01*
X111148000Y-102880000D02*
X113388000Y-102880000D01*
X111148000Y-99480000D02*
X111148000Y-103720000D01*
%TO.C,C1*%
X109373349Y-101346000D02*
G75*
G02*
X101133349Y-101346000I-4120000J0D01*
G01*
X101133349Y-101346000D02*
G75*
G02*
X109373349Y-101346000I4120000J0D01*
G01*
X109334349Y-100813000D02*
X109334349Y-101879000D01*
X109294349Y-100578000D02*
X109294349Y-102114000D01*
X109254349Y-100398000D02*
X109254349Y-102294000D01*
X109214349Y-100248000D02*
X109214349Y-102444000D01*
X109174349Y-100117000D02*
X109174349Y-102575000D01*
X109134349Y-100000000D02*
X109134349Y-102692000D01*
X109094349Y-99893000D02*
X109094349Y-102799000D01*
X109054349Y-99794000D02*
X109054349Y-102898000D01*
X109014349Y-99701000D02*
X109014349Y-102991000D01*
X108974349Y-99615000D02*
X108974349Y-103077000D01*
X108934349Y-99533000D02*
X108934349Y-103159000D01*
X108894349Y-99456000D02*
X108894349Y-103236000D01*
X108854349Y-99382000D02*
X108854349Y-103310000D01*
X108814349Y-99312000D02*
X108814349Y-103380000D01*
X108774349Y-102386000D02*
X108774349Y-103448000D01*
X108774349Y-99244000D02*
X108774349Y-100306000D01*
X108734349Y-102386000D02*
X108734349Y-103512000D01*
X108734349Y-99180000D02*
X108734349Y-100306000D01*
X108694349Y-102386000D02*
X108694349Y-103574000D01*
X108694349Y-99118000D02*
X108694349Y-100306000D01*
X108654349Y-102386000D02*
X108654349Y-103633000D01*
X108654349Y-99059000D02*
X108654349Y-100306000D01*
X108614349Y-102386000D02*
X108614349Y-103691000D01*
X108614349Y-99001000D02*
X108614349Y-100306000D01*
X108574349Y-102386000D02*
X108574349Y-103746000D01*
X108574349Y-98946000D02*
X108574349Y-100306000D01*
X108534349Y-102386000D02*
X108534349Y-103800000D01*
X108534349Y-98892000D02*
X108534349Y-100306000D01*
X108494349Y-102386000D02*
X108494349Y-103851000D01*
X108494349Y-98841000D02*
X108494349Y-100306000D01*
X108454349Y-102386000D02*
X108454349Y-103902000D01*
X108454349Y-98790000D02*
X108454349Y-100306000D01*
X108414349Y-102386000D02*
X108414349Y-103950000D01*
X108414349Y-98742000D02*
X108414349Y-100306000D01*
X108374349Y-102386000D02*
X108374349Y-103997000D01*
X108374349Y-98695000D02*
X108374349Y-100306000D01*
X108334349Y-102386000D02*
X108334349Y-104043000D01*
X108334349Y-98649000D02*
X108334349Y-100306000D01*
X108294349Y-102386000D02*
X108294349Y-104087000D01*
X108294349Y-98605000D02*
X108294349Y-100306000D01*
X108254349Y-102386000D02*
X108254349Y-104130000D01*
X108254349Y-98562000D02*
X108254349Y-100306000D01*
X108214349Y-102386000D02*
X108214349Y-104172000D01*
X108214349Y-98520000D02*
X108214349Y-100306000D01*
X108174349Y-102386000D02*
X108174349Y-104213000D01*
X108174349Y-98479000D02*
X108174349Y-100306000D01*
X108134349Y-102386000D02*
X108134349Y-104253000D01*
X108134349Y-98439000D02*
X108134349Y-100306000D01*
X108094349Y-102386000D02*
X108094349Y-104291000D01*
X108094349Y-98401000D02*
X108094349Y-100306000D01*
X108054349Y-102386000D02*
X108054349Y-104329000D01*
X108054349Y-98363000D02*
X108054349Y-100306000D01*
X108014349Y-102386000D02*
X108014349Y-104365000D01*
X108014349Y-98327000D02*
X108014349Y-100306000D01*
X107974349Y-102386000D02*
X107974349Y-104401000D01*
X107974349Y-98291000D02*
X107974349Y-100306000D01*
X107934349Y-102386000D02*
X107934349Y-104436000D01*
X107934349Y-98256000D02*
X107934349Y-100306000D01*
X107894349Y-102386000D02*
X107894349Y-104470000D01*
X107894349Y-98222000D02*
X107894349Y-100306000D01*
X107854349Y-102386000D02*
X107854349Y-104502000D01*
X107854349Y-98190000D02*
X107854349Y-100306000D01*
X107814349Y-102386000D02*
X107814349Y-104535000D01*
X107814349Y-98157000D02*
X107814349Y-100306000D01*
X107774349Y-102386000D02*
X107774349Y-104566000D01*
X107774349Y-98126000D02*
X107774349Y-100306000D01*
X107734349Y-102386000D02*
X107734349Y-104596000D01*
X107734349Y-98096000D02*
X107734349Y-100306000D01*
X107694349Y-102386000D02*
X107694349Y-104626000D01*
X107694349Y-98066000D02*
X107694349Y-100306000D01*
X107654349Y-102386000D02*
X107654349Y-104655000D01*
X107654349Y-98037000D02*
X107654349Y-100306000D01*
X107614349Y-102386000D02*
X107614349Y-104684000D01*
X107614349Y-98008000D02*
X107614349Y-100306000D01*
X107574349Y-102386000D02*
X107574349Y-104711000D01*
X107574349Y-97981000D02*
X107574349Y-100306000D01*
X107534349Y-102386000D02*
X107534349Y-104738000D01*
X107534349Y-97954000D02*
X107534349Y-100306000D01*
X107494349Y-102386000D02*
X107494349Y-104764000D01*
X107494349Y-97928000D02*
X107494349Y-100306000D01*
X107454349Y-102386000D02*
X107454349Y-104790000D01*
X107454349Y-97902000D02*
X107454349Y-100306000D01*
X107414349Y-102386000D02*
X107414349Y-104815000D01*
X107414349Y-97877000D02*
X107414349Y-100306000D01*
X107374349Y-102386000D02*
X107374349Y-104839000D01*
X107374349Y-97853000D02*
X107374349Y-100306000D01*
X107334349Y-102386000D02*
X107334349Y-104863000D01*
X107334349Y-97829000D02*
X107334349Y-100306000D01*
X107294349Y-102386000D02*
X107294349Y-104886000D01*
X107294349Y-97806000D02*
X107294349Y-100306000D01*
X107254349Y-102386000D02*
X107254349Y-104908000D01*
X107254349Y-97784000D02*
X107254349Y-100306000D01*
X107214349Y-102386000D02*
X107214349Y-104930000D01*
X107214349Y-97762000D02*
X107214349Y-100306000D01*
X107174349Y-102386000D02*
X107174349Y-104952000D01*
X107174349Y-97740000D02*
X107174349Y-100306000D01*
X107134349Y-102386000D02*
X107134349Y-104973000D01*
X107134349Y-97719000D02*
X107134349Y-100306000D01*
X107094349Y-102386000D02*
X107094349Y-104993000D01*
X107094349Y-97699000D02*
X107094349Y-100306000D01*
X107054349Y-102386000D02*
X107054349Y-105012000D01*
X107054349Y-97680000D02*
X107054349Y-100306000D01*
X107014349Y-102386000D02*
X107014349Y-105032000D01*
X107014349Y-97660000D02*
X107014349Y-100306000D01*
X106974349Y-102386000D02*
X106974349Y-105050000D01*
X106974349Y-97642000D02*
X106974349Y-100306000D01*
X106934349Y-102386000D02*
X106934349Y-105068000D01*
X106934349Y-97624000D02*
X106934349Y-100306000D01*
X106894349Y-102386000D02*
X106894349Y-105086000D01*
X106894349Y-97606000D02*
X106894349Y-100306000D01*
X106854349Y-102386000D02*
X106854349Y-105103000D01*
X106854349Y-97589000D02*
X106854349Y-100306000D01*
X106814349Y-102386000D02*
X106814349Y-105120000D01*
X106814349Y-97572000D02*
X106814349Y-100306000D01*
X106774349Y-102386000D02*
X106774349Y-105136000D01*
X106774349Y-97556000D02*
X106774349Y-100306000D01*
X106734349Y-102386000D02*
X106734349Y-105151000D01*
X106734349Y-97541000D02*
X106734349Y-100306000D01*
X106694349Y-97525000D02*
X106694349Y-105167000D01*
X106654349Y-97511000D02*
X106654349Y-105181000D01*
X106614349Y-97496000D02*
X106614349Y-105196000D01*
X106574349Y-97483000D02*
X106574349Y-105209000D01*
X106534349Y-97469000D02*
X106534349Y-105223000D01*
X106494349Y-97457000D02*
X106494349Y-105235000D01*
X106454349Y-97444000D02*
X106454349Y-105248000D01*
X106414349Y-97432000D02*
X106414349Y-105260000D01*
X106374349Y-97421000D02*
X106374349Y-105271000D01*
X106334349Y-97410000D02*
X106334349Y-105282000D01*
X106294349Y-97399000D02*
X106294349Y-105293000D01*
X106254349Y-97389000D02*
X106254349Y-105303000D01*
X106214349Y-97379000D02*
X106214349Y-105313000D01*
X106174349Y-97370000D02*
X106174349Y-105322000D01*
X106134349Y-97361000D02*
X106134349Y-105331000D01*
X106094349Y-97352000D02*
X106094349Y-105340000D01*
X106054349Y-97344000D02*
X106054349Y-105348000D01*
X106014349Y-97336000D02*
X106014349Y-105356000D01*
X105974349Y-97329000D02*
X105974349Y-105363000D01*
X105933349Y-97322000D02*
X105933349Y-105370000D01*
X105893349Y-97316000D02*
X105893349Y-105376000D01*
X105853349Y-97309000D02*
X105853349Y-105383000D01*
X105813349Y-97304000D02*
X105813349Y-105388000D01*
X105773349Y-97298000D02*
X105773349Y-105394000D01*
X105733349Y-97294000D02*
X105733349Y-105398000D01*
X105693349Y-97289000D02*
X105693349Y-105403000D01*
X105653349Y-97285000D02*
X105653349Y-105407000D01*
X105613349Y-97281000D02*
X105613349Y-105411000D01*
X105573349Y-97278000D02*
X105573349Y-105414000D01*
X105533349Y-97275000D02*
X105533349Y-105417000D01*
X105493349Y-97272000D02*
X105493349Y-105420000D01*
X105453349Y-97270000D02*
X105453349Y-105422000D01*
X105413349Y-97269000D02*
X105413349Y-105423000D01*
X105373349Y-97267000D02*
X105373349Y-105425000D01*
X105333349Y-97266000D02*
X105333349Y-105426000D01*
X105293349Y-97266000D02*
X105293349Y-105426000D01*
X105253349Y-97266000D02*
X105253349Y-105426000D01*
X101243651Y-98631000D02*
X101243651Y-99431000D01*
X100843651Y-99031000D02*
X101643651Y-99031000D01*
%TO.C,J4*%
D10*
X167386000Y-92102000D02*
X157226000Y-92102000D01*
X157226000Y-87022000D01*
X167386000Y-87022000D01*
X167386000Y-92102000D01*
D12*
%TO.C,R12*%
X119812000Y-66548000D02*
X120762000Y-66548000D01*
X120762000Y-65628000D02*
X120762000Y-67468000D01*
X120762000Y-67468000D02*
X124602000Y-67468000D01*
X124602000Y-65628000D02*
X120762000Y-65628000D01*
X124602000Y-67468000D02*
X124602000Y-65628000D01*
X125552000Y-66548000D02*
X124602000Y-66548000D01*
%TO.C,C5*%
X118396199Y-54939000D02*
X118796199Y-54939000D01*
X118596199Y-54739000D02*
X118596199Y-55139000D01*
X120666000Y-54054000D02*
X120666000Y-58214000D01*
X120706000Y-54054000D02*
X120706000Y-58214000D01*
X120746000Y-54055000D02*
X120746000Y-58213000D01*
X120786000Y-54057000D02*
X120786000Y-58211000D01*
X120826000Y-54060000D02*
X120826000Y-58208000D01*
X120866000Y-54063000D02*
X120866000Y-55294000D01*
X120866000Y-56974000D02*
X120866000Y-58205000D01*
X120906000Y-54067000D02*
X120906000Y-55294000D01*
X120906000Y-56974000D02*
X120906000Y-58201000D01*
X120946000Y-54072000D02*
X120946000Y-55294000D01*
X120946000Y-56974000D02*
X120946000Y-58196000D01*
X120986000Y-54078000D02*
X120986000Y-55294000D01*
X120986000Y-56974000D02*
X120986000Y-58190000D01*
X121026000Y-54084000D02*
X121026000Y-55294000D01*
X121026000Y-56974000D02*
X121026000Y-58184000D01*
X121066000Y-54092000D02*
X121066000Y-55294000D01*
X121066000Y-56974000D02*
X121066000Y-58176000D01*
X121106000Y-54100000D02*
X121106000Y-55294000D01*
X121106000Y-56974000D02*
X121106000Y-58168000D01*
X121146000Y-54109000D02*
X121146000Y-55294000D01*
X121146000Y-56974000D02*
X121146000Y-58159000D01*
X121186000Y-54118000D02*
X121186000Y-55294000D01*
X121186000Y-56974000D02*
X121186000Y-58150000D01*
X121226000Y-54129000D02*
X121226000Y-55294000D01*
X121226000Y-56974000D02*
X121226000Y-58139000D01*
X121266000Y-54140000D02*
X121266000Y-55294000D01*
X121266000Y-56974000D02*
X121266000Y-58128000D01*
X121306000Y-54152000D02*
X121306000Y-55294000D01*
X121306000Y-56974000D02*
X121306000Y-58116000D01*
X121346000Y-54166000D02*
X121346000Y-55294000D01*
X121346000Y-56974000D02*
X121346000Y-58102000D01*
X121387000Y-54180000D02*
X121387000Y-55294000D01*
X121387000Y-56974000D02*
X121387000Y-58088000D01*
X121427000Y-54194000D02*
X121427000Y-55294000D01*
X121427000Y-56974000D02*
X121427000Y-58074000D01*
X121467000Y-54210000D02*
X121467000Y-55294000D01*
X121467000Y-56974000D02*
X121467000Y-58058000D01*
X121507000Y-54227000D02*
X121507000Y-55294000D01*
X121507000Y-56974000D02*
X121507000Y-58041000D01*
X121547000Y-54245000D02*
X121547000Y-55294000D01*
X121547000Y-56974000D02*
X121547000Y-58023000D01*
X121587000Y-54264000D02*
X121587000Y-55294000D01*
X121587000Y-56974000D02*
X121587000Y-58004000D01*
X121627000Y-54283000D02*
X121627000Y-55294000D01*
X121627000Y-56974000D02*
X121627000Y-57985000D01*
X121667000Y-54304000D02*
X121667000Y-55294000D01*
X121667000Y-56974000D02*
X121667000Y-57964000D01*
X121707000Y-54326000D02*
X121707000Y-55294000D01*
X121707000Y-56974000D02*
X121707000Y-57942000D01*
X121747000Y-54349000D02*
X121747000Y-55294000D01*
X121747000Y-56974000D02*
X121747000Y-57919000D01*
X121787000Y-54374000D02*
X121787000Y-55294000D01*
X121787000Y-56974000D02*
X121787000Y-57894000D01*
X121827000Y-54399000D02*
X121827000Y-55294000D01*
X121827000Y-56974000D02*
X121827000Y-57869000D01*
X121867000Y-54426000D02*
X121867000Y-55294000D01*
X121867000Y-56974000D02*
X121867000Y-57842000D01*
X121907000Y-54454000D02*
X121907000Y-55294000D01*
X121907000Y-56974000D02*
X121907000Y-57814000D01*
X121947000Y-54484000D02*
X121947000Y-55294000D01*
X121947000Y-56974000D02*
X121947000Y-57784000D01*
X121987000Y-54515000D02*
X121987000Y-55294000D01*
X121987000Y-56974000D02*
X121987000Y-57753000D01*
X122027000Y-54547000D02*
X122027000Y-55294000D01*
X122027000Y-56974000D02*
X122027000Y-57721000D01*
X122067000Y-54582000D02*
X122067000Y-55294000D01*
X122067000Y-56974000D02*
X122067000Y-57686000D01*
X122107000Y-54618000D02*
X122107000Y-55294000D01*
X122107000Y-56974000D02*
X122107000Y-57650000D01*
X122147000Y-54656000D02*
X122147000Y-55294000D01*
X122147000Y-56974000D02*
X122147000Y-57612000D01*
X122187000Y-54696000D02*
X122187000Y-55294000D01*
X122187000Y-56974000D02*
X122187000Y-57572000D01*
X122227000Y-54738000D02*
X122227000Y-55294000D01*
X122227000Y-56974000D02*
X122227000Y-57530000D01*
X122267000Y-54783000D02*
X122267000Y-55294000D01*
X122267000Y-56974000D02*
X122267000Y-57485000D01*
X122307000Y-54830000D02*
X122307000Y-55294000D01*
X122307000Y-56974000D02*
X122307000Y-57438000D01*
X122347000Y-54880000D02*
X122347000Y-55294000D01*
X122347000Y-56974000D02*
X122347000Y-57388000D01*
X122387000Y-54934000D02*
X122387000Y-55294000D01*
X122387000Y-56974000D02*
X122387000Y-57334000D01*
X122427000Y-54992000D02*
X122427000Y-55294000D01*
X122427000Y-56974000D02*
X122427000Y-57276000D01*
X122467000Y-55054000D02*
X122467000Y-55294000D01*
X122467000Y-56974000D02*
X122467000Y-57214000D01*
X122507000Y-55121000D02*
X122507000Y-57147000D01*
X122547000Y-55194000D02*
X122547000Y-57074000D01*
X122587000Y-55275000D02*
X122587000Y-56993000D01*
X122627000Y-55366000D02*
X122627000Y-56902000D01*
X122667000Y-55470000D02*
X122667000Y-56798000D01*
X122707000Y-55597000D02*
X122707000Y-56671000D01*
X122747000Y-55764000D02*
X122747000Y-56504000D01*
X122786000Y-56134000D02*
G75*
G02*
X118546000Y-56134000I-2120000J0D01*
G01*
X118546000Y-56134000D02*
G75*
G02*
X122786000Y-56134000I2120000J0D01*
G01*
%TO.C,R6*%
X159436000Y-101854000D02*
X160386000Y-101854000D01*
X160386000Y-100934000D02*
X160386000Y-102774000D01*
X160386000Y-102774000D02*
X164226000Y-102774000D01*
X164226000Y-100934000D02*
X160386000Y-100934000D01*
X164226000Y-102774000D02*
X164226000Y-100934000D01*
X165176000Y-101854000D02*
X164226000Y-101854000D01*
%TO.C,J3*%
D10*
X167386000Y-72798000D02*
X157226000Y-72798000D01*
X157226000Y-67718000D01*
X167386000Y-67718000D01*
X167386000Y-72798000D01*
D12*
%TO.C,J1*%
X103976000Y-54704000D02*
X103976000Y-56624000D01*
X103976000Y-57224000D02*
X103976000Y-62644000D01*
X105596000Y-54704000D02*
X105596000Y-62644000D01*
X111216000Y-54704000D02*
X103976000Y-54704000D01*
X111216000Y-54704000D02*
X111216000Y-62644000D01*
X111216000Y-62644000D02*
X103976000Y-62644000D01*
X106016000Y-57357000D02*
G75*
G02*
X106016188Y-56490273I1680000J433000D01*
G01*
X107263000Y-55244000D02*
G75*
G02*
X108129727Y-55244188I432999J-1679997D01*
G01*
X108129000Y-58604000D02*
G75*
G02*
X107262273Y-58603812I-433000J1680000D01*
G01*
X109376000Y-56491000D02*
G75*
G02*
X109375812Y-57357727I-1679997J-432999D01*
G01*
X109431000Y-60424000D02*
G75*
G02*
X105961000Y-60424000I-1735000J0D01*
G01*
X105961000Y-60424000D02*
G75*
G02*
X109431000Y-60424000I1735000J0D01*
G01*
X103976000Y-56924000D02*
X103366000Y-57364000D01*
X103366000Y-56484000D01*
X103976000Y-56924000D01*
G36*
X103976000Y-56924000D02*
G01*
X103366000Y-57364000D01*
X103366000Y-56484000D01*
X103976000Y-56924000D01*
G37*
%TO.C,C2*%
X152674000Y-67818000D02*
G75*
G02*
X139934000Y-67818000I-6370000J0D01*
G01*
X139934000Y-67818000D02*
G75*
G02*
X152674000Y-67818000I6370000J0D01*
G01*
%TO.C,R7*%
X159944000Y-61214000D02*
X160894000Y-61214000D01*
X160894000Y-60294000D02*
X160894000Y-62134000D01*
X160894000Y-62134000D02*
X164734000Y-62134000D01*
X164734000Y-60294000D02*
X160894000Y-60294000D01*
X164734000Y-62134000D02*
X164734000Y-60294000D01*
X165684000Y-61214000D02*
X164734000Y-61214000D01*
%TO.C,Q3*%
X169034000Y-64658000D02*
X169034000Y-65678000D01*
X169034000Y-68478000D02*
X169034000Y-71129000D01*
X169034000Y-73928000D02*
X169034000Y-76578000D01*
X169034000Y-79378000D02*
X169034000Y-80398000D01*
X172034000Y-64658000D02*
X172034000Y-65678000D01*
X172034000Y-68478000D02*
X172034000Y-71129000D01*
X172034000Y-73928000D02*
X172034000Y-76578000D01*
X172034000Y-79378000D02*
X172034000Y-80398000D01*
X173774000Y-64658000D02*
X169034000Y-64658000D01*
X173774000Y-64658000D02*
X173774000Y-80398000D01*
X173774000Y-70928000D02*
X172034000Y-70928000D01*
X173774000Y-74129000D02*
X172034000Y-74129000D01*
X173774000Y-80398000D02*
X169034000Y-80398000D01*
%TO.C,R3*%
X101188000Y-88504000D02*
X101188000Y-92344000D01*
X101188000Y-92344000D02*
X103028000Y-92344000D01*
X102108000Y-87554000D02*
X102108000Y-88504000D01*
X102108000Y-93294000D02*
X102108000Y-92344000D01*
X103028000Y-88504000D02*
X101188000Y-88504000D01*
X103028000Y-92344000D02*
X103028000Y-88504000D01*
%TO.C,C3*%
X102012000Y-75782000D02*
X105252000Y-75782000D01*
X102012000Y-83222000D02*
X102012000Y-75782000D01*
X102012000Y-83222000D02*
X105252000Y-83222000D01*
X105252000Y-83222000D02*
X105252000Y-75782000D01*
%TO.C,C8*%
X108548000Y-89820000D02*
X108548000Y-93060000D01*
X108548000Y-89820000D02*
X115988000Y-89820000D01*
X108548000Y-93060000D02*
X115988000Y-93060000D01*
X115988000Y-89820000D02*
X115988000Y-93060000D01*
%TO.C,U1*%
X109369000Y-77156000D02*
X109369000Y-87436000D01*
X109369000Y-87436000D02*
X114669000Y-87436000D01*
X111019000Y-77156000D02*
X109369000Y-77156000D01*
X114669000Y-77156000D02*
X113019000Y-77156000D01*
X114669000Y-87436000D02*
X114669000Y-77156000D01*
X113019000Y-77156000D02*
G75*
G02*
X111019000Y-77156000I-1000000J0D01*
G01*
%TO.C,J2*%
D10*
X137414000Y-87630000D02*
X142494000Y-87630000D01*
X142494000Y-77470000D01*
X137414000Y-77470000D01*
X137414000Y-87630000D01*
D12*
%TO.C,R1*%
X146728000Y-106680000D02*
X149378000Y-106680000D01*
X149378000Y-104310000D02*
X149378000Y-109050000D01*
X149378000Y-109050000D02*
X161518000Y-109050000D01*
X161518000Y-104310000D02*
X149378000Y-104310000D01*
X161518000Y-109050000D02*
X161518000Y-104310000D01*
X164168000Y-106680000D02*
X161518000Y-106680000D01*
%TO.C,C11*%
X135358000Y-59490349D02*
X132593000Y-59490349D01*
X135358000Y-59530349D02*
X132608000Y-59530349D01*
X135358000Y-59570349D02*
X132624000Y-59570349D01*
X135358000Y-59610349D02*
X132641000Y-59610349D01*
X135358000Y-59650349D02*
X132658000Y-59650349D01*
X135358000Y-59690349D02*
X132676000Y-59690349D01*
X135358000Y-59730349D02*
X132694000Y-59730349D01*
X135358000Y-59770349D02*
X132712000Y-59770349D01*
X135358000Y-59810349D02*
X132732000Y-59810349D01*
X135358000Y-59850349D02*
X132751000Y-59850349D01*
X135358000Y-59890349D02*
X132771000Y-59890349D01*
X135358000Y-59930349D02*
X132792000Y-59930349D01*
X135358000Y-59970349D02*
X132814000Y-59970349D01*
X135358000Y-60010349D02*
X132836000Y-60010349D01*
X135358000Y-60050349D02*
X132858000Y-60050349D01*
X135358000Y-60090349D02*
X132881000Y-60090349D01*
X135358000Y-60130349D02*
X132905000Y-60130349D01*
X135358000Y-60170349D02*
X132929000Y-60170349D01*
X135358000Y-60210349D02*
X132954000Y-60210349D01*
X135358000Y-60250349D02*
X132980000Y-60250349D01*
X135358000Y-60290349D02*
X133006000Y-60290349D01*
X135358000Y-60330349D02*
X133033000Y-60330349D01*
X135358000Y-60370349D02*
X133060000Y-60370349D01*
X135358000Y-60410349D02*
X133089000Y-60410349D01*
X135358000Y-60450349D02*
X133118000Y-60450349D01*
X135358000Y-60490349D02*
X133148000Y-60490349D01*
X135358000Y-60530349D02*
X133178000Y-60530349D01*
X135358000Y-60570349D02*
X133209000Y-60570349D01*
X135358000Y-60610349D02*
X133242000Y-60610349D01*
X135358000Y-60650349D02*
X133274000Y-60650349D01*
X135358000Y-60690349D02*
X133308000Y-60690349D01*
X135358000Y-60730349D02*
X133343000Y-60730349D01*
X135358000Y-60770349D02*
X133379000Y-60770349D01*
X135358000Y-60810349D02*
X133415000Y-60810349D01*
X135358000Y-60850349D02*
X133453000Y-60850349D01*
X135358000Y-60890349D02*
X133491000Y-60890349D01*
X135358000Y-60930349D02*
X133531000Y-60930349D01*
X135358000Y-60970349D02*
X133572000Y-60970349D01*
X135358000Y-61010349D02*
X133614000Y-61010349D01*
X135358000Y-61050349D02*
X133657000Y-61050349D01*
X135358000Y-61090349D02*
X133701000Y-61090349D01*
X135358000Y-61130349D02*
X133747000Y-61130349D01*
X135358000Y-61170349D02*
X133794000Y-61170349D01*
X135358000Y-61210349D02*
X133842000Y-61210349D01*
X135358000Y-61250349D02*
X133893000Y-61250349D01*
X135358000Y-61290349D02*
X133944000Y-61290349D01*
X135358000Y-61330349D02*
X133998000Y-61330349D01*
X135358000Y-61370349D02*
X134053000Y-61370349D01*
X135358000Y-61410349D02*
X134111000Y-61410349D01*
X135358000Y-61450349D02*
X134170000Y-61450349D01*
X135358000Y-61490349D02*
X134232000Y-61490349D01*
X135358000Y-61530349D02*
X134296000Y-61530349D01*
X136931000Y-62090349D02*
X135865000Y-62090349D01*
X137166000Y-62050349D02*
X135630000Y-62050349D01*
X137346000Y-62010349D02*
X135450000Y-62010349D01*
X137496000Y-61970349D02*
X135300000Y-61970349D01*
X137627000Y-61930349D02*
X135169000Y-61930349D01*
X137744000Y-61890349D02*
X135052000Y-61890349D01*
X137851000Y-61850349D02*
X134945000Y-61850349D01*
X137950000Y-61810349D02*
X134846000Y-61810349D01*
X138043000Y-61770349D02*
X134753000Y-61770349D01*
X138129000Y-61730349D02*
X134667000Y-61730349D01*
X138211000Y-61690349D02*
X134585000Y-61690349D01*
X138288000Y-61650349D02*
X134508000Y-61650349D01*
X138362000Y-61610349D02*
X134434000Y-61610349D01*
X138432000Y-61570349D02*
X134364000Y-61570349D01*
X138500000Y-61530349D02*
X137438000Y-61530349D01*
X138564000Y-61490349D02*
X137438000Y-61490349D01*
X138626000Y-61450349D02*
X137438000Y-61450349D01*
X138685000Y-61410349D02*
X137438000Y-61410349D01*
X138713000Y-53599651D02*
X138713000Y-54399651D01*
X138743000Y-61370349D02*
X137438000Y-61370349D01*
X138798000Y-61330349D02*
X137438000Y-61330349D01*
X138852000Y-61290349D02*
X137438000Y-61290349D01*
X138903000Y-61250349D02*
X137438000Y-61250349D01*
X138954000Y-61210349D02*
X137438000Y-61210349D01*
X139002000Y-61170349D02*
X137438000Y-61170349D01*
X139049000Y-61130349D02*
X137438000Y-61130349D01*
X139095000Y-61090349D02*
X137438000Y-61090349D01*
X139113000Y-53999651D02*
X138313000Y-53999651D01*
X139139000Y-61050349D02*
X137438000Y-61050349D01*
X139182000Y-61010349D02*
X137438000Y-61010349D01*
X139224000Y-60970349D02*
X137438000Y-60970349D01*
X139265000Y-60930349D02*
X137438000Y-60930349D01*
X139305000Y-60890349D02*
X137438000Y-60890349D01*
X139343000Y-60850349D02*
X137438000Y-60850349D01*
X139381000Y-60810349D02*
X137438000Y-60810349D01*
X139417000Y-60770349D02*
X137438000Y-60770349D01*
X139453000Y-60730349D02*
X137438000Y-60730349D01*
X139488000Y-60690349D02*
X137438000Y-60690349D01*
X139522000Y-60650349D02*
X137438000Y-60650349D01*
X139554000Y-60610349D02*
X137438000Y-60610349D01*
X139587000Y-60570349D02*
X137438000Y-60570349D01*
X139618000Y-60530349D02*
X137438000Y-60530349D01*
X139648000Y-60490349D02*
X137438000Y-60490349D01*
X139678000Y-60450349D02*
X137438000Y-60450349D01*
X139707000Y-60410349D02*
X137438000Y-60410349D01*
X139736000Y-60370349D02*
X137438000Y-60370349D01*
X139763000Y-60330349D02*
X137438000Y-60330349D01*
X139790000Y-60290349D02*
X137438000Y-60290349D01*
X139816000Y-60250349D02*
X137438000Y-60250349D01*
X139842000Y-60210349D02*
X137438000Y-60210349D01*
X139867000Y-60170349D02*
X137438000Y-60170349D01*
X139891000Y-60130349D02*
X137438000Y-60130349D01*
X139915000Y-60090349D02*
X137438000Y-60090349D01*
X139938000Y-60050349D02*
X137438000Y-60050349D01*
X139960000Y-60010349D02*
X137438000Y-60010349D01*
X139982000Y-59970349D02*
X137438000Y-59970349D01*
X140004000Y-59930349D02*
X137438000Y-59930349D01*
X140025000Y-59890349D02*
X137438000Y-59890349D01*
X140045000Y-59850349D02*
X137438000Y-59850349D01*
X140064000Y-59810349D02*
X137438000Y-59810349D01*
X140084000Y-59770349D02*
X137438000Y-59770349D01*
X140102000Y-59730349D02*
X137438000Y-59730349D01*
X140120000Y-59690349D02*
X137438000Y-59690349D01*
X140138000Y-59650349D02*
X137438000Y-59650349D01*
X140155000Y-59610349D02*
X137438000Y-59610349D01*
X140172000Y-59570349D02*
X137438000Y-59570349D01*
X140188000Y-59530349D02*
X137438000Y-59530349D01*
X140203000Y-59490349D02*
X137438000Y-59490349D01*
X140219000Y-59450349D02*
X132577000Y-59450349D01*
X140233000Y-59410349D02*
X132563000Y-59410349D01*
X140248000Y-59370349D02*
X132548000Y-59370349D01*
X140261000Y-59330349D02*
X132535000Y-59330349D01*
X140275000Y-59290349D02*
X132521000Y-59290349D01*
X140287000Y-59250349D02*
X132509000Y-59250349D01*
X140300000Y-59210349D02*
X132496000Y-59210349D01*
X140312000Y-59170349D02*
X132484000Y-59170349D01*
X140323000Y-59130349D02*
X132473000Y-59130349D01*
X140334000Y-59090349D02*
X132462000Y-59090349D01*
X140345000Y-59050349D02*
X132451000Y-59050349D01*
X140355000Y-59010349D02*
X132441000Y-59010349D01*
X140365000Y-58970349D02*
X132431000Y-58970349D01*
X140374000Y-58930349D02*
X132422000Y-58930349D01*
X140383000Y-58890349D02*
X132413000Y-58890349D01*
X140392000Y-58850349D02*
X132404000Y-58850349D01*
X140400000Y-58810349D02*
X132396000Y-58810349D01*
X140408000Y-58770349D02*
X132388000Y-58770349D01*
X140415000Y-58730349D02*
X132381000Y-58730349D01*
X140422000Y-58689349D02*
X132374000Y-58689349D01*
X140428000Y-58649349D02*
X132368000Y-58649349D01*
X140435000Y-58609349D02*
X132361000Y-58609349D01*
X140440000Y-58569349D02*
X132356000Y-58569349D01*
X140446000Y-58529349D02*
X132350000Y-58529349D01*
X140450000Y-58489349D02*
X132346000Y-58489349D01*
X140455000Y-58449349D02*
X132341000Y-58449349D01*
X140459000Y-58409349D02*
X132337000Y-58409349D01*
X140463000Y-58369349D02*
X132333000Y-58369349D01*
X140466000Y-58329349D02*
X132330000Y-58329349D01*
X140469000Y-58289349D02*
X132327000Y-58289349D01*
X140472000Y-58249349D02*
X132324000Y-58249349D01*
X140474000Y-58209349D02*
X132322000Y-58209349D01*
X140475000Y-58169349D02*
X132321000Y-58169349D01*
X140477000Y-58129349D02*
X132319000Y-58129349D01*
X140478000Y-58009349D02*
X132318000Y-58009349D01*
X140478000Y-58049349D02*
X132318000Y-58049349D01*
X140478000Y-58089349D02*
X132318000Y-58089349D01*
X140518000Y-58009349D02*
G75*
G02*
X132278000Y-58009349I-4120000J0D01*
G01*
X132278000Y-58009349D02*
G75*
G02*
X140518000Y-58009349I4120000J0D01*
G01*
%TO.C,Q2*%
X170284000Y-54177000D02*
X170284000Y-62418000D01*
X170604000Y-56698000D02*
X170284000Y-56698000D01*
X170604000Y-59898000D02*
X170284000Y-59898000D01*
X173774000Y-54177000D02*
X170284000Y-54177000D01*
X173774000Y-54177000D02*
X173774000Y-62418000D01*
X173774000Y-56698000D02*
X172704000Y-56698000D01*
X173774000Y-59898000D02*
X172704000Y-59898000D01*
X173774000Y-62418000D02*
X170284000Y-62418000D01*
%TO.C,R8*%
X146982000Y-77978000D02*
X149632000Y-77978000D01*
X149632000Y-75608000D02*
X149632000Y-80348000D01*
X149632000Y-80348000D02*
X161772000Y-80348000D01*
X161772000Y-75608000D02*
X149632000Y-75608000D01*
X161772000Y-80348000D02*
X161772000Y-75608000D01*
X164422000Y-77978000D02*
X161772000Y-77978000D01*
%TO.C,R10*%
X102204000Y-66152000D02*
X102204000Y-69992000D01*
X102204000Y-69992000D02*
X104044000Y-69992000D01*
X103124000Y-65202000D02*
X103124000Y-66152000D01*
X103124000Y-70942000D02*
X103124000Y-69992000D01*
X104044000Y-66152000D02*
X102204000Y-66152000D01*
X104044000Y-69992000D02*
X104044000Y-66152000D01*
%TO.C,R2*%
X147998000Y-56642000D02*
X150648000Y-56642000D01*
X150648000Y-54272000D02*
X150648000Y-59012000D01*
X150648000Y-59012000D02*
X162788000Y-59012000D01*
X162788000Y-54272000D02*
X150648000Y-54272000D01*
X162788000Y-59012000D02*
X162788000Y-54272000D01*
X165438000Y-56642000D02*
X162788000Y-56642000D01*
%TO.C,J5*%
D10*
X122528000Y-82550000D02*
X127608000Y-82550000D01*
X127608000Y-72390000D01*
X122528000Y-72390000D01*
X122528000Y-82550000D01*
D12*
%TO.C,R9*%
X146982000Y-96520000D02*
X149632000Y-96520000D01*
X149632000Y-94150000D02*
X149632000Y-98890000D01*
X149632000Y-98890000D02*
X161772000Y-98890000D01*
X161772000Y-94150000D02*
X149632000Y-94150000D01*
X161772000Y-98890000D02*
X161772000Y-94150000D01*
X164422000Y-96520000D02*
X161772000Y-96520000D01*
%TO.C,C6*%
X126836000Y-95916000D02*
X126836000Y-99156000D01*
X126836000Y-95916000D02*
X134276000Y-95916000D01*
X126836000Y-99156000D02*
X134276000Y-99156000D01*
X134276000Y-95916000D02*
X134276000Y-99156000D01*
%TO.C,J6*%
D10*
X122428000Y-93726000D02*
X127508000Y-93726000D01*
X127508000Y-83566000D01*
X122428000Y-83566000D01*
X122428000Y-93726000D01*
D12*
%TO.C,D2*%
X153470000Y-84656000D02*
X153470000Y-90096000D01*
X153470000Y-90096000D02*
X156410000Y-90096000D01*
X154940000Y-83636000D02*
X154940000Y-84656000D01*
X154940000Y-91116000D02*
X154940000Y-90096000D01*
X156410000Y-84656000D02*
X153470000Y-84656000D01*
X156410000Y-85436000D02*
X153470000Y-85436000D01*
X156410000Y-85556000D02*
X153470000Y-85556000D01*
X156410000Y-85676000D02*
X153470000Y-85676000D01*
X156410000Y-90096000D02*
X156410000Y-84656000D01*
%TO.C,C12*%
X135612000Y-105661000D02*
X132847000Y-105661000D01*
X135612000Y-105701000D02*
X132862000Y-105701000D01*
X135612000Y-105741000D02*
X132878000Y-105741000D01*
X135612000Y-105781000D02*
X132895000Y-105781000D01*
X135612000Y-105821000D02*
X132912000Y-105821000D01*
X135612000Y-105861000D02*
X132930000Y-105861000D01*
X135612000Y-105901000D02*
X132948000Y-105901000D01*
X135612000Y-105941000D02*
X132966000Y-105941000D01*
X135612000Y-105981000D02*
X132986000Y-105981000D01*
X135612000Y-106021000D02*
X133005000Y-106021000D01*
X135612000Y-106061000D02*
X133025000Y-106061000D01*
X135612000Y-106101000D02*
X133046000Y-106101000D01*
X135612000Y-106141000D02*
X133068000Y-106141000D01*
X135612000Y-106181000D02*
X133090000Y-106181000D01*
X135612000Y-106221000D02*
X133112000Y-106221000D01*
X135612000Y-106261000D02*
X133135000Y-106261000D01*
X135612000Y-106301000D02*
X133159000Y-106301000D01*
X135612000Y-106341000D02*
X133183000Y-106341000D01*
X135612000Y-106381000D02*
X133208000Y-106381000D01*
X135612000Y-106421000D02*
X133234000Y-106421000D01*
X135612000Y-106461000D02*
X133260000Y-106461000D01*
X135612000Y-106501000D02*
X133287000Y-106501000D01*
X135612000Y-106541000D02*
X133314000Y-106541000D01*
X135612000Y-106581000D02*
X133343000Y-106581000D01*
X135612000Y-106621000D02*
X133372000Y-106621000D01*
X135612000Y-106661000D02*
X133402000Y-106661000D01*
X135612000Y-106701000D02*
X133432000Y-106701000D01*
X135612000Y-106741000D02*
X133463000Y-106741000D01*
X135612000Y-106781000D02*
X133496000Y-106781000D01*
X135612000Y-106821000D02*
X133528000Y-106821000D01*
X135612000Y-106861000D02*
X133562000Y-106861000D01*
X135612000Y-106901000D02*
X133597000Y-106901000D01*
X135612000Y-106941000D02*
X133633000Y-106941000D01*
X135612000Y-106981000D02*
X133669000Y-106981000D01*
X135612000Y-107021000D02*
X133707000Y-107021000D01*
X135612000Y-107061000D02*
X133745000Y-107061000D01*
X135612000Y-107101000D02*
X133785000Y-107101000D01*
X135612000Y-107141000D02*
X133826000Y-107141000D01*
X135612000Y-107181000D02*
X133868000Y-107181000D01*
X135612000Y-107221000D02*
X133911000Y-107221000D01*
X135612000Y-107261000D02*
X133955000Y-107261000D01*
X135612000Y-107301000D02*
X134001000Y-107301000D01*
X135612000Y-107341000D02*
X134048000Y-107341000D01*
X135612000Y-107381000D02*
X134096000Y-107381000D01*
X135612000Y-107421000D02*
X134147000Y-107421000D01*
X135612000Y-107461000D02*
X134198000Y-107461000D01*
X135612000Y-107501000D02*
X134252000Y-107501000D01*
X135612000Y-107541000D02*
X134307000Y-107541000D01*
X135612000Y-107581000D02*
X134365000Y-107581000D01*
X135612000Y-107621000D02*
X134424000Y-107621000D01*
X135612000Y-107661000D02*
X134486000Y-107661000D01*
X135612000Y-107701000D02*
X134550000Y-107701000D01*
X137185000Y-108261000D02*
X136119000Y-108261000D01*
X137420000Y-108221000D02*
X135884000Y-108221000D01*
X137600000Y-108181000D02*
X135704000Y-108181000D01*
X137750000Y-108141000D02*
X135554000Y-108141000D01*
X137881000Y-108101000D02*
X135423000Y-108101000D01*
X137998000Y-108061000D02*
X135306000Y-108061000D01*
X138105000Y-108021000D02*
X135199000Y-108021000D01*
X138204000Y-107981000D02*
X135100000Y-107981000D01*
X138297000Y-107941000D02*
X135007000Y-107941000D01*
X138383000Y-107901000D02*
X134921000Y-107901000D01*
X138465000Y-107861000D02*
X134839000Y-107861000D01*
X138542000Y-107821000D02*
X134762000Y-107821000D01*
X138616000Y-107781000D02*
X134688000Y-107781000D01*
X138686000Y-107741000D02*
X134618000Y-107741000D01*
X138754000Y-107701000D02*
X137692000Y-107701000D01*
X138818000Y-107661000D02*
X137692000Y-107661000D01*
X138880000Y-107621000D02*
X137692000Y-107621000D01*
X138939000Y-107581000D02*
X137692000Y-107581000D01*
X138967000Y-99770302D02*
X138967000Y-100570302D01*
X138997000Y-107541000D02*
X137692000Y-107541000D01*
X139052000Y-107501000D02*
X137692000Y-107501000D01*
X139106000Y-107461000D02*
X137692000Y-107461000D01*
X139157000Y-107421000D02*
X137692000Y-107421000D01*
X139208000Y-107381000D02*
X137692000Y-107381000D01*
X139256000Y-107341000D02*
X137692000Y-107341000D01*
X139303000Y-107301000D02*
X137692000Y-107301000D01*
X139349000Y-107261000D02*
X137692000Y-107261000D01*
X139367000Y-100170302D02*
X138567000Y-100170302D01*
X139393000Y-107221000D02*
X137692000Y-107221000D01*
X139436000Y-107181000D02*
X137692000Y-107181000D01*
X139478000Y-107141000D02*
X137692000Y-107141000D01*
X139519000Y-107101000D02*
X137692000Y-107101000D01*
X139559000Y-107061000D02*
X137692000Y-107061000D01*
X139597000Y-107021000D02*
X137692000Y-107021000D01*
X139635000Y-106981000D02*
X137692000Y-106981000D01*
X139671000Y-106941000D02*
X137692000Y-106941000D01*
X139707000Y-106901000D02*
X137692000Y-106901000D01*
X139742000Y-106861000D02*
X137692000Y-106861000D01*
X139776000Y-106821000D02*
X137692000Y-106821000D01*
X139808000Y-106781000D02*
X137692000Y-106781000D01*
X139841000Y-106741000D02*
X137692000Y-106741000D01*
X139872000Y-106701000D02*
X137692000Y-106701000D01*
X139902000Y-106661000D02*
X137692000Y-106661000D01*
X139932000Y-106621000D02*
X137692000Y-106621000D01*
X139961000Y-106581000D02*
X137692000Y-106581000D01*
X139990000Y-106541000D02*
X137692000Y-106541000D01*
X140017000Y-106501000D02*
X137692000Y-106501000D01*
X140044000Y-106461000D02*
X137692000Y-106461000D01*
X140070000Y-106421000D02*
X137692000Y-106421000D01*
X140096000Y-106381000D02*
X137692000Y-106381000D01*
X140121000Y-106341000D02*
X137692000Y-106341000D01*
X140145000Y-106301000D02*
X137692000Y-106301000D01*
X140169000Y-106261000D02*
X137692000Y-106261000D01*
X140192000Y-106221000D02*
X137692000Y-106221000D01*
X140214000Y-106181000D02*
X137692000Y-106181000D01*
X140236000Y-106141000D02*
X137692000Y-106141000D01*
X140258000Y-106101000D02*
X137692000Y-106101000D01*
X140279000Y-106061000D02*
X137692000Y-106061000D01*
X140299000Y-106021000D02*
X137692000Y-106021000D01*
X140318000Y-105981000D02*
X137692000Y-105981000D01*
X140338000Y-105941000D02*
X137692000Y-105941000D01*
X140356000Y-105901000D02*
X137692000Y-105901000D01*
X140374000Y-105861000D02*
X137692000Y-105861000D01*
X140392000Y-105821000D02*
X137692000Y-105821000D01*
X140409000Y-105781000D02*
X137692000Y-105781000D01*
X140426000Y-105741000D02*
X137692000Y-105741000D01*
X140442000Y-105701000D02*
X137692000Y-105701000D01*
X140457000Y-105661000D02*
X137692000Y-105661000D01*
X140473000Y-105621000D02*
X132831000Y-105621000D01*
X140487000Y-105581000D02*
X132817000Y-105581000D01*
X140502000Y-105541000D02*
X132802000Y-105541000D01*
X140515000Y-105501000D02*
X132789000Y-105501000D01*
X140529000Y-105461000D02*
X132775000Y-105461000D01*
X140541000Y-105421000D02*
X132763000Y-105421000D01*
X140554000Y-105381000D02*
X132750000Y-105381000D01*
X140566000Y-105341000D02*
X132738000Y-105341000D01*
X140577000Y-105301000D02*
X132727000Y-105301000D01*
X140588000Y-105261000D02*
X132716000Y-105261000D01*
X140599000Y-105221000D02*
X132705000Y-105221000D01*
X140609000Y-105181000D02*
X132695000Y-105181000D01*
X140619000Y-105141000D02*
X132685000Y-105141000D01*
X140628000Y-105101000D02*
X132676000Y-105101000D01*
X140637000Y-105061000D02*
X132667000Y-105061000D01*
X140646000Y-105021000D02*
X132658000Y-105021000D01*
X140654000Y-104981000D02*
X132650000Y-104981000D01*
X140662000Y-104941000D02*
X132642000Y-104941000D01*
X140669000Y-104901000D02*
X132635000Y-104901000D01*
X140676000Y-104860000D02*
X132628000Y-104860000D01*
X140682000Y-104820000D02*
X132622000Y-104820000D01*
X140689000Y-104780000D02*
X132615000Y-104780000D01*
X140694000Y-104740000D02*
X132610000Y-104740000D01*
X140700000Y-104700000D02*
X132604000Y-104700000D01*
X140704000Y-104660000D02*
X132600000Y-104660000D01*
X140709000Y-104620000D02*
X132595000Y-104620000D01*
X140713000Y-104580000D02*
X132591000Y-104580000D01*
X140717000Y-104540000D02*
X132587000Y-104540000D01*
X140720000Y-104500000D02*
X132584000Y-104500000D01*
X140723000Y-104460000D02*
X132581000Y-104460000D01*
X140726000Y-104420000D02*
X132578000Y-104420000D01*
X140728000Y-104380000D02*
X132576000Y-104380000D01*
X140729000Y-104340000D02*
X132575000Y-104340000D01*
X140731000Y-104300000D02*
X132573000Y-104300000D01*
X140732000Y-104180000D02*
X132572000Y-104180000D01*
X140732000Y-104220000D02*
X132572000Y-104220000D01*
X140732000Y-104260000D02*
X132572000Y-104260000D01*
X140772000Y-104180000D02*
G75*
G02*
X132532000Y-104180000I-4120000J0D01*
G01*
X132532000Y-104180000D02*
G75*
G02*
X140772000Y-104180000I4120000J0D01*
G01*
%TO.C,R4*%
X109398000Y-66548000D02*
X110348000Y-66548000D01*
X110348000Y-65628000D02*
X110348000Y-67468000D01*
X110348000Y-67468000D02*
X114188000Y-67468000D01*
X114188000Y-65628000D02*
X110348000Y-65628000D01*
X114188000Y-67468000D02*
X114188000Y-65628000D01*
X115138000Y-66548000D02*
X114188000Y-66548000D01*
%TO.C,Q4*%
X169034000Y-83062000D02*
X169034000Y-84082000D01*
X169034000Y-86882000D02*
X169034000Y-89533000D01*
X169034000Y-92332000D02*
X169034000Y-94982000D01*
X169034000Y-97782000D02*
X169034000Y-98802000D01*
X172034000Y-83062000D02*
X172034000Y-84082000D01*
X172034000Y-86882000D02*
X172034000Y-89533000D01*
X172034000Y-92332000D02*
X172034000Y-94982000D01*
X172034000Y-97782000D02*
X172034000Y-98802000D01*
X173774000Y-83062000D02*
X169034000Y-83062000D01*
X173774000Y-83062000D02*
X173774000Y-98802000D01*
X173774000Y-89332000D02*
X172034000Y-89332000D01*
X173774000Y-92533000D02*
X172034000Y-92533000D01*
X173774000Y-98802000D02*
X169034000Y-98802000D01*
%TO.C,C7*%
X108548000Y-71278000D02*
X108548000Y-74518000D01*
X108548000Y-71278000D02*
X115988000Y-71278000D01*
X108548000Y-74518000D02*
X115988000Y-74518000D01*
X115988000Y-71278000D02*
X115988000Y-74518000D01*
%TO.C,R5*%
X159944000Y-65532000D02*
X160894000Y-65532000D01*
X160894000Y-64612000D02*
X160894000Y-66452000D01*
X160894000Y-66452000D02*
X164734000Y-66452000D01*
X164734000Y-64612000D02*
X160894000Y-64612000D01*
X164734000Y-66452000D02*
X164734000Y-64612000D01*
X165684000Y-65532000D02*
X164734000Y-65532000D01*
%TO.C,R11*%
X128186000Y-75972000D02*
X128186000Y-88112000D01*
X128186000Y-88112000D02*
X132926000Y-88112000D01*
X130556000Y-73322000D02*
X130556000Y-75972000D01*
X130556000Y-90762000D02*
X130556000Y-88112000D01*
X132926000Y-75972000D02*
X128186000Y-75972000D01*
X132926000Y-88112000D02*
X132926000Y-75972000D01*
%TO.C,C4*%
X116422000Y-62580000D02*
X116422000Y-59340000D01*
X123862000Y-59340000D02*
X116422000Y-59340000D01*
X123862000Y-62580000D02*
X116422000Y-62580000D01*
X123862000Y-62580000D02*
X123862000Y-59340000D01*
%TO.C,Q1*%
X170284000Y-100925000D02*
X170284000Y-109166000D01*
X170604000Y-103446000D02*
X170284000Y-103446000D01*
X170604000Y-106646000D02*
X170284000Y-106646000D01*
X173774000Y-100925000D02*
X170284000Y-100925000D01*
X173774000Y-100925000D02*
X173774000Y-109166000D01*
X173774000Y-103446000D02*
X172704000Y-103446000D01*
X173774000Y-106646000D02*
X172704000Y-106646000D01*
X173774000Y-109166000D02*
X170284000Y-109166000D01*
D13*
%TO.C,RV1*%
X146090000Y-82526000D02*
X151090000Y-82526000D01*
X146090000Y-92226000D02*
X146090000Y-82526000D01*
X151090000Y-82526000D02*
X151090000Y-92226000D01*
X151090000Y-92226000D02*
X146090000Y-92226000D01*
%TD*%
M02*
