%TF.GenerationSoftware,KiCad,Pcbnew,9.0.0*%
%TF.CreationDate,2025-04-03T19:31:54-04:00*%
%TF.ProjectId,diamond,6469616d-6f6e-4642-9e6b-696361645f70,rev?*%
%TF.SameCoordinates,Original*%
%TF.FileFunction,Copper,L2,Bot*%
%TF.FilePolarity,Positive*%
%FSLAX46Y46*%
G04 Gerber Fmt 4.6, Leading zero omitted, Abs format (unit mm)*
G04 Created by KiCad (PCBNEW 9.0.0) date 2025-04-03 19:31:54*
%MOMM*%
%LPD*%
G01*
G04 APERTURE LIST*
G04 Aperture macros list*
%AMRoundRect*
0 Rectangle with rounded corners*
0 $1 Rounding radius*
0 $2 $3 $4 $5 $6 $7 $8 $9 X,Y pos of 4 corners*
0 Add a 4 corners polygon primitive as box body*
4,1,4,$2,$3,$4,$5,$6,$7,$8,$9,$2,$3,0*
0 Add four circle primitives for the rounded corners*
1,1,$1+$1,$2,$3*
1,1,$1+$1,$4,$5*
1,1,$1+$1,$6,$7*
1,1,$1+$1,$8,$9*
0 Add four rect primitives between the rounded corners*
20,1,$1+$1,$2,$3,$4,$5,0*
20,1,$1+$1,$4,$5,$6,$7,0*
20,1,$1+$1,$6,$7,$8,$9,0*
20,1,$1+$1,$8,$9,$2,$3,0*%
G04 Aperture macros list end*
%TA.AperFunction,ComponentPad*%
%ADD10O,1.600000X1.600000*%
%TD*%
%TA.AperFunction,ComponentPad*%
%ADD11R,1.600000X1.600000*%
%TD*%
%TA.AperFunction,ComponentPad*%
%ADD12C,1.600000*%
%TD*%
%TA.AperFunction,ComponentPad*%
%ADD13C,3.000000*%
%TD*%
%TA.AperFunction,ComponentPad*%
%ADD14C,1.400000*%
%TD*%
%TA.AperFunction,ComponentPad*%
%ADD15O,1.400000X1.400000*%
%TD*%
%TA.AperFunction,ComponentPad*%
%ADD16R,1.200000X1.200000*%
%TD*%
%TA.AperFunction,ComponentPad*%
%ADD17C,1.200000*%
%TD*%
%TA.AperFunction,ComponentPad*%
%ADD18RoundRect,0.250001X-0.949999X0.949999X-0.949999X-0.949999X0.949999X-0.949999X0.949999X0.949999X0*%
%TD*%
%TA.AperFunction,ComponentPad*%
%ADD19C,2.400000*%
%TD*%
%TA.AperFunction,ComponentPad*%
%ADD20R,4.500000X2.500000*%
%TD*%
%TA.AperFunction,ComponentPad*%
%ADD21O,4.500000X2.500000*%
%TD*%
%TA.AperFunction,ComponentPad*%
%ADD22RoundRect,0.250000X-0.550000X-0.550000X0.550000X-0.550000X0.550000X0.550000X-0.550000X0.550000X0*%
%TD*%
%TA.AperFunction,ComponentPad*%
%ADD23O,2.400000X2.400000*%
%TD*%
%TA.AperFunction,ComponentPad*%
%ADD24R,1.800000X1.710000*%
%TD*%
%TA.AperFunction,ComponentPad*%
%ADD25O,1.800000X1.710000*%
%TD*%
%TA.AperFunction,ComponentPad*%
%ADD26R,2.200000X2.200000*%
%TD*%
%TA.AperFunction,ComponentPad*%
%ADD27O,2.200000X2.200000*%
%TD*%
%TA.AperFunction,ComponentPad*%
%ADD28C,1.308000*%
%TD*%
%TA.AperFunction,Conductor*%
%ADD29C,4.000000*%
%TD*%
%TA.AperFunction,Conductor*%
%ADD30C,1.000000*%
%TD*%
G04 APERTURE END LIST*
D10*
%TO.P,D1,2,A*%
%TO.N,GND*%
X112268000Y-97790000D03*
D11*
%TO.P,D1,1,K*%
%TO.N,Net-(D1-K)*%
X112268000Y-105410000D03*
%TD*%
D12*
%TO.P,C1,2*%
%TO.N,GND*%
X107753349Y-101346000D03*
D11*
%TO.P,C1,1*%
%TO.N,Net-(D1-K)*%
X102753349Y-101346000D03*
%TD*%
D13*
%TO.P,J4,1,1*%
%TO.N,B-*%
X164846000Y-89562000D03*
%TO.P,J4,2,2*%
X159766000Y-89562000D03*
%TD*%
D14*
%TO.P,R12,1*%
%TO.N,GND*%
X126492000Y-66548000D03*
D15*
%TO.P,R12,2*%
%TO.N,GNDS*%
X118872000Y-66548000D03*
%TD*%
D16*
%TO.P,C5,1*%
%TO.N,IN*%
X119666000Y-56134000D03*
D17*
%TO.P,C5,2*%
%TO.N,Net-(U1A-+)*%
X121666000Y-56134000D03*
%TD*%
D14*
%TO.P,R6,1*%
%TO.N,Net-(Q1-E)*%
X158496000Y-101854000D03*
D15*
%TO.P,R6,2*%
%TO.N,Net-(Q4-B)*%
X166116000Y-101854000D03*
%TD*%
D13*
%TO.P,J3,1,1*%
%TO.N,B+*%
X164846000Y-70258000D03*
%TO.P,J3,2,2*%
X159766000Y-70258000D03*
%TD*%
D18*
%TO.P,J1,1,Pin_1*%
%TO.N,IN*%
X107696000Y-56924000D03*
D19*
%TO.P,J1,2,Pin_2*%
%TO.N,GNDS*%
X107696000Y-60424000D03*
%TD*%
D12*
%TO.P,C2,1*%
%TO.N,Net-(Q3-C)*%
X148804000Y-67818000D03*
%TO.P,C2,2*%
%TO.N,Net-(Q4-B)*%
X143804000Y-67818000D03*
%TD*%
D14*
%TO.P,R7,1*%
%TO.N,Net-(Q3-C)*%
X166624000Y-61214000D03*
D15*
%TO.P,R7,2*%
%TO.N,Net-(R7-Pad2)*%
X159004000Y-61214000D03*
%TD*%
D20*
%TO.P,Q3,1,C*%
%TO.N,Net-(Q3-C)*%
X170654000Y-67078000D03*
D21*
%TO.P,Q3,2,B*%
%TO.N,B+*%
X170654000Y-72528000D03*
%TO.P,Q3,3,E*%
%TO.N,Net-(Q3-E)*%
X170654000Y-77978000D03*
%TD*%
D14*
%TO.P,R3,1*%
%TO.N,Net-(D1-K)*%
X102108000Y-94234000D03*
D15*
%TO.P,R3,2*%
%TO.N,Net-(U1A--)*%
X102108000Y-86614000D03*
%TD*%
D12*
%TO.P,C3,1*%
%TO.N,Net-(U1A--)*%
X103632000Y-82002000D03*
%TO.P,C3,2*%
%TO.N,Net-(Q1-B)*%
X103632000Y-77002000D03*
%TD*%
%TO.P,C8,1*%
%TO.N,B-*%
X109768000Y-91440000D03*
%TO.P,C8,2*%
%TO.N,GND*%
X114768000Y-91440000D03*
%TD*%
D22*
%TO.P,U1,1*%
%TO.N,Net-(Q1-B)*%
X108209000Y-78486000D03*
D12*
%TO.P,U1,2,-*%
%TO.N,Net-(U1A--)*%
X108209000Y-81026000D03*
%TO.P,U1,3,+*%
%TO.N,Net-(U1A-+)*%
X108209000Y-83566000D03*
%TO.P,U1,4,V-*%
%TO.N,B-*%
X108209000Y-86106000D03*
%TO.P,U1,5,+*%
%TO.N,GND*%
X115829000Y-86106000D03*
%TO.P,U1,6,-*%
%TO.N,Net-(U1B--)*%
X115829000Y-83566000D03*
%TO.P,U1,7*%
X115829000Y-81026000D03*
%TO.P,U1,8,V+*%
%TO.N,B+*%
X115829000Y-78486000D03*
%TD*%
D13*
%TO.P,J2,1,1*%
%TO.N,SPK*%
X139954000Y-85090000D03*
%TO.P,J2,2,2*%
X139954000Y-80010000D03*
%TD*%
D19*
%TO.P,R1,1*%
%TO.N,Net-(Q1-E)*%
X165608000Y-106680000D03*
D23*
%TO.P,R1,2*%
%TO.N,B-*%
X145288000Y-106680000D03*
%TD*%
D11*
%TO.P,C11,1*%
%TO.N,B+*%
X136398000Y-55509349D03*
D12*
%TO.P,C11,2*%
%TO.N,GND*%
X136398000Y-60509349D03*
%TD*%
D24*
%TO.P,Q2,1,E*%
%TO.N,Net-(Q2-E)*%
X171654000Y-56018000D03*
D25*
%TO.P,Q2,2,C*%
%TO.N,B-*%
X171654000Y-58298000D03*
%TO.P,Q2,3,B*%
%TO.N,Net-(Q1-B)*%
X171654000Y-60578000D03*
%TD*%
D19*
%TO.P,R8,1*%
%TO.N,Net-(Q3-E)*%
X165862000Y-77978000D03*
D23*
%TO.P,R8,2*%
%TO.N,SPK*%
X145542000Y-77978000D03*
%TD*%
D14*
%TO.P,R10,1*%
%TO.N,Net-(U1A-+)*%
X103124000Y-64262000D03*
D15*
%TO.P,R10,2*%
%TO.N,GNDS*%
X103124000Y-71882000D03*
%TD*%
D19*
%TO.P,R2,1*%
%TO.N,B+*%
X146558000Y-56642000D03*
D23*
%TO.P,R2,2*%
%TO.N,Net-(Q2-E)*%
X166878000Y-56642000D03*
%TD*%
D13*
%TO.P,J5,1,1*%
%TO.N,GND*%
X125068000Y-80010000D03*
%TO.P,J5,2,2*%
X125068000Y-74930000D03*
%TD*%
D19*
%TO.P,R9,1*%
%TO.N,SPK*%
X145542000Y-96520000D03*
D23*
%TO.P,R9,2*%
%TO.N,Net-(Q4-E)*%
X165862000Y-96520000D03*
%TD*%
D12*
%TO.P,C6,1*%
%TO.N,Net-(C6-Pad1)*%
X128056000Y-97536000D03*
%TO.P,C6,2*%
%TO.N,GND*%
X133056000Y-97536000D03*
%TD*%
D13*
%TO.P,J6,1,1*%
%TO.N,GND*%
X124968000Y-91186000D03*
%TO.P,J6,2,2*%
X124968000Y-86106000D03*
%TD*%
D26*
%TO.P,D2,1,K*%
%TO.N,B+*%
X154940000Y-82296000D03*
D27*
%TO.P,D2,2,A*%
%TO.N,B-*%
X154940000Y-92456000D03*
%TD*%
D11*
%TO.P,C12,1*%
%TO.N,GND*%
X136652000Y-101680000D03*
D12*
%TO.P,C12,2*%
%TO.N,B-*%
X136652000Y-106680000D03*
%TD*%
D14*
%TO.P,R4,1*%
%TO.N,Net-(U1A--)*%
X108458000Y-66548000D03*
D15*
%TO.P,R4,2*%
%TO.N,SPK*%
X116078000Y-66548000D03*
%TD*%
D20*
%TO.P,Q4,1,B*%
%TO.N,Net-(Q4-B)*%
X170654000Y-85482000D03*
D21*
%TO.P,Q4,2,C*%
%TO.N,B-*%
X170654000Y-90932000D03*
%TO.P,Q4,3,E*%
%TO.N,Net-(Q4-E)*%
X170654000Y-96382000D03*
%TD*%
D12*
%TO.P,C7,1*%
%TO.N,B+*%
X109768000Y-72898000D03*
%TO.P,C7,2*%
%TO.N,GND*%
X114768000Y-72898000D03*
%TD*%
D14*
%TO.P,R5,1*%
%TO.N,Net-(Q2-E)*%
X159004000Y-65532000D03*
D15*
%TO.P,R5,2*%
%TO.N,Net-(Q3-C)*%
X166624000Y-65532000D03*
%TD*%
D19*
%TO.P,R11,1*%
%TO.N,SPK*%
X130556000Y-71882000D03*
D23*
%TO.P,R11,2*%
%TO.N,Net-(C6-Pad1)*%
X130556000Y-92202000D03*
%TD*%
D12*
%TO.P,C4,1*%
%TO.N,Net-(U1A-+)*%
X122642000Y-60960000D03*
%TO.P,C4,2*%
%TO.N,GNDS*%
X117642000Y-60960000D03*
%TD*%
D24*
%TO.P,Q1,1,E*%
%TO.N,Net-(Q1-E)*%
X171654000Y-102766000D03*
D25*
%TO.P,Q1,2,C*%
%TO.N,B+*%
X171654000Y-105046000D03*
%TO.P,Q1,3,B*%
%TO.N,Net-(Q1-B)*%
X171654000Y-107326000D03*
%TD*%
D28*
%TO.P,RV1,1,1*%
%TO.N,Net-(R7-Pad2)*%
X148590000Y-84836000D03*
%TO.P,RV1,2,2*%
X148590000Y-87376000D03*
%TO.P,RV1,3,3*%
%TO.N,Net-(Q4-B)*%
X148590000Y-89916000D03*
%TD*%
D29*
%TO.N,B-*%
X169284000Y-89562000D02*
X170654000Y-90932000D01*
X145288000Y-106426000D02*
X162152000Y-89562000D01*
X162152000Y-89562000D02*
X169284000Y-89562000D01*
X145288000Y-106680000D02*
X145288000Y-106426000D01*
D30*
%TO.N,Net-(Q1-B)*%
X173255000Y-58977000D02*
X171654000Y-60578000D01*
X173255000Y-54672709D02*
X173255000Y-58977000D01*
X106680000Y-52324000D02*
X170906291Y-52324000D01*
X100838000Y-58166000D02*
X106680000Y-52324000D01*
X100838000Y-74208000D02*
X100838000Y-58166000D01*
X103632000Y-77002000D02*
X100838000Y-74208000D01*
X170906291Y-52324000D02*
X173255000Y-54672709D01*
%TO.N,IN*%
X119666000Y-56134000D02*
X118876000Y-56924000D01*
X118876000Y-56924000D02*
X107696000Y-56924000D01*
%TO.N,Net-(U1A-+)*%
X121666000Y-55285472D02*
X121666000Y-56134000D01*
X107188000Y-54102000D02*
X120482528Y-54102000D01*
X120482528Y-54102000D02*
X121666000Y-55285472D01*
X103124000Y-58166000D02*
X107188000Y-54102000D01*
X103124000Y-64262000D02*
X103124000Y-58166000D01*
D29*
%TO.N,B+*%
X146251000Y-56335000D02*
X136398000Y-56335000D01*
X146558000Y-56642000D02*
X146251000Y-56335000D01*
D30*
%TO.N,Net-(D1-K)*%
X106817349Y-105410000D02*
X112268000Y-105410000D01*
%TO.N,B-*%
X117602000Y-106680000D02*
X136652000Y-106680000D01*
X109768000Y-98846000D02*
X117602000Y-106680000D01*
X109768000Y-91440000D02*
X109768000Y-98846000D01*
%TO.N,GND*%
X118464002Y-91439998D02*
X125068000Y-84836000D01*
X118464002Y-91440000D02*
X118464002Y-91439998D01*
X118464002Y-91440000D02*
X114768000Y-91440000D01*
%TO.N,Net-(U1A--)*%
X102108000Y-83526000D02*
X102108000Y-86614000D01*
X103632000Y-82002000D02*
X102108000Y-83526000D01*
%TO.N,Net-(U1B--)*%
X115829000Y-81026000D02*
X115829000Y-83566000D01*
%TO.N,GND*%
X118972000Y-86106000D02*
X125068000Y-80010000D01*
X115829000Y-86106000D02*
X118972000Y-86106000D01*
D29*
X134366000Y-97536000D02*
X136652000Y-95250000D01*
X126901674Y-70005674D02*
X136370349Y-60537000D01*
X125322000Y-86106000D02*
X125322000Y-91186000D01*
D30*
X118210002Y-72898000D02*
X125068002Y-79756000D01*
D29*
X136652000Y-92358304D02*
X129129696Y-84836000D01*
X125068000Y-84836000D02*
X125068000Y-79756000D01*
X129129696Y-84836000D02*
X125068000Y-84836000D01*
D30*
X126492000Y-66548000D02*
X126492000Y-69596000D01*
D29*
X133056000Y-97536000D02*
X134366000Y-97536000D01*
X136652000Y-95250000D02*
X136652000Y-101680000D01*
X125068002Y-71839346D02*
X125068002Y-79756000D01*
X126901674Y-70005674D02*
X125068002Y-71839346D01*
D30*
X114768000Y-72898000D02*
X118210002Y-72898000D01*
D29*
X136652000Y-95250000D02*
X136652000Y-92358304D01*
D30*
X126492000Y-69596000D02*
X126901674Y-70005674D01*
D29*
X136370349Y-60537000D02*
X136398000Y-60537000D01*
D30*
%TO.N,Net-(Q1-B)*%
X173666000Y-107124000D02*
X173666000Y-98886847D01*
X173666000Y-80899847D02*
X174805000Y-79760847D01*
X174805000Y-79760847D02*
X174805000Y-63729000D01*
X171654000Y-107326000D02*
X173464000Y-107326000D01*
X173666000Y-86796944D02*
X173666000Y-80899847D01*
X108209000Y-78486000D02*
X105116000Y-78486000D01*
X105116000Y-78486000D02*
X103632000Y-77002000D01*
X174805000Y-97747847D02*
X174805000Y-87935944D01*
X173464000Y-107326000D02*
X173666000Y-107124000D01*
X174805000Y-87935944D02*
X173666000Y-86796944D01*
X174805000Y-63729000D02*
X171654000Y-60578000D01*
X173666000Y-98886847D02*
X174805000Y-97747847D01*
%TO.N,Net-(U1A--)*%
X107758000Y-75583156D02*
X109710000Y-77535156D01*
X108458000Y-66548000D02*
X107758000Y-67248000D01*
X109710000Y-77535156D02*
X109710000Y-79525000D01*
X109710000Y-79525000D02*
X108209000Y-81026000D01*
X103632000Y-82002000D02*
X107233000Y-82002000D01*
X107233000Y-82002000D02*
X108209000Y-81026000D01*
X107758000Y-67248000D02*
X107758000Y-75583156D01*
%TO.N,Net-(U1A-+)*%
X121666000Y-59984000D02*
X122642000Y-60960000D01*
X121666000Y-56134000D02*
X121666000Y-59984000D01*
D29*
%TO.N,Net-(C6-Pad1)*%
X128056000Y-96012000D02*
X130590277Y-93477723D01*
X130590277Y-93477723D02*
X130590277Y-92236278D01*
X128056000Y-97536000D02*
X128056000Y-96012000D01*
D30*
%TO.N,Net-(Q1-E)*%
X158496000Y-101854000D02*
X160782000Y-101854000D01*
X167740000Y-106680000D02*
X171654000Y-102766000D01*
X165608000Y-106680000D02*
X167740000Y-106680000D01*
X160782000Y-101854000D02*
X165608000Y-106680000D01*
%TO.N,Net-(Q2-E)*%
X167640000Y-56642000D02*
X166878000Y-56642000D01*
X166878000Y-56642000D02*
X159004000Y-64516000D01*
X168264000Y-56018000D02*
X167640000Y-56642000D01*
X171654000Y-56018000D02*
X168264000Y-56018000D01*
X159004000Y-64516000D02*
X159004000Y-65532000D01*
%TO.N,Net-(Q3-C)*%
X166624000Y-65532000D02*
X169108000Y-65532000D01*
X169108000Y-65532000D02*
X170654000Y-67078000D01*
X166624000Y-61214000D02*
X166624000Y-65532000D01*
D29*
%TO.N,Net-(Q3-E)*%
X166279000Y-78395000D02*
X170654000Y-78395000D01*
X165862000Y-77978000D02*
X166279000Y-78395000D01*
D30*
%TO.N,Net-(Q4-B)*%
X166116000Y-101854000D02*
X169001791Y-101854000D01*
X173605000Y-88433000D02*
X170654000Y-85482000D01*
X169001791Y-101854000D02*
X173605000Y-97250791D01*
X173605000Y-97250791D02*
X173605000Y-88433000D01*
D29*
%TO.N,Net-(Q4-E)*%
X166000000Y-96382000D02*
X165862000Y-96520000D01*
X170654000Y-96382000D02*
X166000000Y-96382000D01*
%TO.N,SPK*%
X145542000Y-96520000D02*
X145542000Y-85344000D01*
X142494000Y-85344000D02*
X141070000Y-85344000D01*
X145542000Y-85344000D02*
X145542000Y-82550000D01*
X141986000Y-92964000D02*
X141986000Y-88900000D01*
X141324000Y-78332000D02*
X143383000Y-80391000D01*
X142494000Y-93472000D02*
X145542000Y-96520000D01*
X141070000Y-85344000D02*
X140054000Y-84328000D01*
X139954000Y-84428000D02*
X139954000Y-85090000D01*
X142494000Y-87630000D02*
X142494000Y-93472000D01*
X140054000Y-84328000D02*
X140054000Y-79248000D01*
X140054000Y-84328000D02*
X139954000Y-84428000D01*
X143383000Y-80391000D02*
X145542000Y-82550000D01*
X142494000Y-93472000D02*
X141986000Y-92964000D01*
X137921999Y-79248000D02*
X130761937Y-72087938D01*
X141986000Y-88900000D02*
X143002000Y-87884000D01*
X142494000Y-85344000D02*
X142494000Y-81280000D01*
X139954000Y-85090000D02*
X142494000Y-87630000D01*
X141324000Y-77978000D02*
X141324000Y-78332000D01*
X142494000Y-81280000D02*
X143383000Y-80391000D01*
X143002000Y-87884000D02*
X142494000Y-87376000D01*
X145542000Y-82550000D02*
X145542000Y-77978000D01*
X140054000Y-79248000D02*
X137921999Y-79248000D01*
X142494000Y-87376000D02*
X142494000Y-81280000D01*
X141324000Y-77978000D02*
X140054000Y-79248000D01*
X145542000Y-77978000D02*
X141324000Y-77978000D01*
X145542000Y-85344000D02*
X142494000Y-85344000D01*
D30*
%TO.N,B+*%
X115829000Y-78486000D02*
X115356000Y-78486000D01*
D29*
X155448000Y-81788000D02*
X154940000Y-82296000D01*
X159512000Y-70258000D02*
X155718651Y-70258000D01*
X166862000Y-72528000D02*
X164592000Y-70258000D01*
X155718651Y-70258000D02*
X147320000Y-61859349D01*
D30*
X113578000Y-69088000D02*
X119380000Y-69088000D01*
D29*
X159512000Y-70258000D02*
X164592000Y-70258000D01*
D30*
X132958651Y-55509349D02*
X136398000Y-55509349D01*
D29*
X147320000Y-61859349D02*
X147320000Y-57404000D01*
D30*
X119380000Y-69088000D02*
X132958651Y-55509349D01*
D29*
X147320000Y-57404000D02*
X146558000Y-56642000D01*
X170654000Y-72528000D02*
X166862000Y-72528000D01*
D30*
X115356000Y-78486000D02*
X109768000Y-72898000D01*
D29*
X155718651Y-70258000D02*
X155448000Y-70528651D01*
D30*
X109768000Y-72898000D02*
X113578000Y-69088000D01*
%TO.N,B-*%
X171654000Y-58298000D02*
X170053000Y-59899000D01*
X108209000Y-86106000D02*
X108209000Y-91186000D01*
X170053000Y-61575000D02*
X173605000Y-65127000D01*
X173605000Y-65127000D02*
X173605000Y-79263791D01*
X169337791Y-83531000D02*
X167485680Y-83531000D01*
X109768000Y-91440000D02*
X108463000Y-91440000D01*
X167485680Y-83531000D02*
X163576000Y-87440680D01*
D29*
X145288000Y-106680000D02*
X136652000Y-106680000D01*
D30*
X170053000Y-59899000D02*
X170053000Y-61575000D01*
X108463000Y-91440000D02*
X108209000Y-91186000D01*
X173605000Y-79263791D02*
X169337791Y-83531000D01*
X163576000Y-87440680D02*
X163576000Y-89562000D01*
%TO.N,GNDS*%
X117642000Y-60960000D02*
X114250500Y-60960000D01*
X110063500Y-65147000D02*
X114250500Y-60960000D01*
X107696000Y-60424000D02*
X113714500Y-60424000D01*
X118872000Y-62190000D02*
X117642000Y-60960000D01*
X118872000Y-66548000D02*
X118872000Y-62190000D01*
X113714500Y-60424000D02*
X114250500Y-60960000D01*
X107877686Y-65147000D02*
X110063500Y-65147000D01*
X103124000Y-69900686D02*
X107877686Y-65147000D01*
X103124000Y-71882000D02*
X103124000Y-69900686D01*
D29*
%TO.N,B+*%
X155448000Y-70528651D02*
X155448000Y-81788000D01*
D30*
%TO.N,Net-(D1-K)*%
X102108000Y-94234000D02*
X102108000Y-100700651D01*
X102108000Y-100700651D02*
X102753349Y-101346000D01*
X102753349Y-101346000D02*
X106817349Y-105410000D01*
%TO.N,GND*%
X118364000Y-97790000D02*
X124968000Y-91186000D01*
X112268000Y-97790000D02*
X118364000Y-97790000D01*
%TD*%
M02*
