M48
; DRILL file {KiCad 9.0.0} date 2025-04-03T19:27:20-0400
; FORMAT={-:-/ absolute / inch / decimal}
; #@! TF.CreationDate,2025-04-03T19:27:20-04:00
; #@! TF.GenerationSoftware,Kicad,Pcbnew,9.0.0
; #@! TF.FileFunction,Plated,1,2,PTH
FMAT,2
INCH
; #@! TA.AperFunction,Plated,PTH,ComponentDrill
T1C0.0236
; #@! TA.AperFunction,Plated,PTH,ComponentDrill
T2C0.0276
; #@! TA.AperFunction,Plated,PTH,ComponentDrill
T3C0.0315
; #@! TA.AperFunction,Plated,PTH,ComponentDrill
T4C0.0394
; #@! TA.AperFunction,Plated,PTH,ComponentDrill
T5C0.0433
; #@! TA.AperFunction,Plated,PTH,ComponentDrill
T6C0.0472
; #@! TA.AperFunction,Plated,PTH,ComponentDrill
T7C0.0551
; #@! TA.AperFunction,Plated,PTH,ComponentDrill
T8C0.0591
%
G90
G05
T1
X4.7113Y-2.21
X4.79Y-2.21
T2
X4.02Y-3.41
X4.02Y-3.71
X4.06Y-2.53
X4.06Y-2.83
X4.27Y-2.62
X4.57Y-2.62
X4.68Y-2.62
X4.98Y-2.62
X6.24Y-4.01
X6.26Y-2.41
X6.26Y-2.58
X6.54Y-4.01
X6.56Y-2.41
X6.56Y-2.58
T3
X4.0454Y-3.99
X4.08Y-3.0316
X4.08Y-3.2284
X4.2423Y-3.99
X4.2602Y-3.09
X4.2602Y-3.19
X4.2602Y-3.29
X4.2602Y-3.39
X4.3216Y-2.87
X4.3216Y-3.6
X4.42Y-3.85
X4.42Y-4.15
X4.5184Y-2.87
X4.5184Y-3.6
X4.5602Y-3.09
X4.5602Y-3.19
X4.5602Y-3.29
X4.5602Y-3.39
X4.6316Y-2.4
X4.8284Y-2.4
X5.0416Y-3.84
X5.2384Y-3.84
X5.37Y-2.1854
X5.37Y-2.3823
X5.38Y-4.0031
X5.38Y-4.2
X5.6616Y-2.67
X5.85Y-3.34
X5.85Y-3.44
X5.85Y-3.54
X5.8584Y-2.67
T4
X6.758Y-2.2054
X6.758Y-2.2952
X6.758Y-2.385
X6.758Y-4.0459
X6.758Y-4.1357
X6.758Y-4.2254
T5
X6.1Y-3.24
X6.1Y-3.64
T6
X4.24Y-2.2411
X4.24Y-2.3789
X5.14Y-2.83
X5.14Y-3.63
X5.72Y-4.2
X5.73Y-3.07
X5.73Y-3.8
X5.77Y-2.23
X6.52Y-4.2
X6.53Y-3.07
X6.53Y-3.8
X6.57Y-2.23
T7
X4.92Y-3.39
X4.92Y-3.59
X4.9239Y-2.95
X4.9239Y-3.15
X5.51Y-3.15
X5.51Y-3.35
X6.29Y-2.7661
X6.29Y-3.5261
X6.49Y-2.7661
X6.49Y-3.5261
T8
X6.7187Y-2.6409
X6.7187Y-2.8554
X6.7187Y-3.07
X6.7187Y-3.3654
X6.7187Y-3.58
X6.7187Y-3.7946
M30
